<?xml version="1.0" encoding="UTF-8"?>
<svg xmlns="http://www.w3.org/2000/svg" xmlns:xlink="http://www.w3.org/1999/xlink" width="48px" height="48px" viewBox="0 0 48 48" version="1.1">
<g id="surface1">
<path style=" stroke:none;fill-rule:nonzero;fill:rgb(0%,0%,0%);fill-opacity:1;" d="M 24 44.925781 C 16.445312 44.992188 9.445312 40.980469 5.679688 34.429688 C 1.914062 27.882812 1.96875 19.8125 5.824219 13.316406 C 9.679688 6.820312 16.738281 2.90625 24.289062 3.078125 C 35.765625 3.269531 44.945312 12.667969 44.867188 24.144531 C 44.785156 35.621094 35.476562 44.894531 24 44.925781 Z M 20.667969 25.230469 C 20.820312 25.382812 20.820312 25.382812 20.957031 25.382812 C 24 27.839844 27.039062 30.148438 29.9375 32.617188 C 30.527344 33.144531 31.15625 33.628906 31.820312 34.066406 C 32.242188 34.359375 32.789062 34.414062 33.261719 34.207031 C 33.734375 34 34.066406 33.5625 34.136719 33.050781 C 34.160156 32.707031 34.109375 32.359375 33.988281 32.035156 L 28.351562 18.570312 C 27.480469 16.542969 26.613281 14.371094 25.742188 12.34375 C 25.617188 11.925781 25.289062 11.601562 24.875 11.476562 C 24.007812 11.183594 23.425781 11.625 22.992188 12.488281 C 19.953125 19.585938 17.054688 26.824219 14.011719 33.921875 C 14.011719 34.074219 13.863281 34.210938 13.863281 34.359375 L 16.757812 34.359375 C 17.050781 34.359375 17.050781 34.207031 17.195312 34.066406 C 17.773438 32.765625 18.207031 31.316406 18.789062 30.019531 C 19.328125 28.390625 19.953125 26.792969 20.667969 25.230469 Z M 20.667969 25.230469 "/>
<path style=" stroke:none;fill-rule:nonzero;fill:rgb(100%,100%,100%);fill-opacity:1;" d="M 20.667969 25.230469 C 20.089844 26.824219 19.363281 28.417969 18.785156 30.011719 C 18.207031 31.3125 17.628906 32.761719 17.191406 34.058594 L 13.863281 34.210938 C 13.863281 34.058594 14.011719 33.921875 14.011719 33.777344 C 17.054688 26.679688 19.949219 19.4375 22.992188 12.34375 C 23.425781 11.472656 24.007812 11.039062 24.875 11.328125 C 25.289062 11.453125 25.617188 11.78125 25.742188 12.195312 C 26.613281 14.222656 27.480469 16.398438 28.351562 18.421875 L 33.996094 31.890625 C 34.113281 32.316406 34.160156 32.753906 34.148438 33.195312 C 34.074219 33.707031 33.746094 34.144531 33.273438 34.347656 C 32.800781 34.554688 32.253906 34.503906 31.828125 34.210938 C 31.175781 33.761719 30.546875 33.277344 29.949219 32.761719 C 26.90625 30.300781 23.863281 27.984375 20.96875 25.519531 C 20.8125 25.230469 20.8125 25.230469 20.667969 25.230469 Z M 24.433594 15.820312 C 23.566406 18.136719 22.695312 20.308594 21.683594 22.480469 C 21.53125 22.628906 21.683594 22.769531 21.832031 22.914062 C 24 24.652344 26.171875 26.25 28.351562 27.984375 C 28.785156 28.273438 29.21875 28.707031 29.652344 28.996094 C 27.910156 24.652344 26.171875 20.308594 24.433594 15.820312 Z M 24.433594 15.820312 "/>
<path style=" stroke:none;fill-rule:nonzero;fill:rgb(0%,0%,0%);fill-opacity:1;" d="M 24.433594 15.820312 C 26.171875 20.308594 28.054688 24.652344 29.792969 28.996094 C 29.359375 28.707031 28.925781 28.273438 28.488281 27.984375 C 26.316406 26.246094 24.140625 24.652344 21.972656 22.914062 C 21.824219 22.765625 21.683594 22.765625 21.824219 22.480469 C 22.550781 20.308594 23.421875 18.136719 24.433594 15.820312 Z M 24.433594 15.820312 "/>
</g>
</svg>
