<?xml version="1.0" encoding="UTF-8"?>
<svg xmlns="http://www.w3.org/2000/svg" xmlns:xlink="http://www.w3.org/1999/xlink" width="48px" height="48px" viewBox="0 0 48 48" version="1.1">
<g id="surface1">
<path style=" stroke:none;fill-rule:nonzero;fill:rgb(61.56863%,31.764707%,14.509805%);fill-opacity:1;" d="M 45 28.726562 L 45 30.636719 C 45 34.097656 41.183594 37.675781 36.527344 37.675781 L 11.472656 37.675781 C 6.757812 37.675781 3 34.15625 3 30.636719 L 3 28.726562 Z M 45 28.726562 "/>
<path style=" stroke:none;fill-rule:nonzero;fill:rgb(96.078432%,52.156866%,20.784314%);fill-opacity:1;" d="M 19.167969 10.171875 C 23.394531 10.15625 27.230469 12.640625 28.949219 16.5 C 29.863281 15.875 30.945312 15.542969 32.050781 15.546875 C 34.992188 15.515625 37.414062 17.855469 37.480469 20.796875 C 41.492188 21.257812 44.628906 24.46875 45 28.488281 L 45 29.203125 C 45 32.726562 41.183594 36.246094 36.46875 36.246094 L 11.472656 36.246094 C 6.757812 36.246094 3 32.722656 3 29.203125 L 3 28.488281 C 3.203125 25.199219 5.332031 22.339844 8.429688 21.210938 L 8.429688 20.910156 C 8.417969 18.058594 9.542969 15.320312 11.5625 13.304688 C 13.578125 11.289062 16.316406 10.160156 19.167969 10.171875 Z M 19.167969 10.171875 "/>
<path style=" stroke:none;fill-rule:nonzero;fill:rgb(100%,100%,100%);fill-opacity:1;" d="M 13.5 22.640625 L 10.695312 32.425781 L 12.367188 32.425781 L 13.023438 30.039062 L 15.886719 30.039062 L 16.488281 32.425781 L 18.148438 32.425781 L 15.523438 22.640625 Z M 13.261719 28.792969 L 14.460938 23.960938 L 15.59375 28.792969 Z M 13.261719 28.792969 "/>
<path style=" stroke:none;fill-rule:nonzero;fill:rgb(100%,100%,100%);fill-opacity:1;" d="M 25.191406 30.339844 L 25.132812 30.339844 L 23.820312 22.640625 L 22.152344 22.640625 L 20.898438 30.277344 L 20.839844 30.277344 L 19.527344 22.640625 L 17.972656 22.640625 L 19.882812 32.484375 L 21.671875 32.484375 L 22.925781 25.089844 L 22.984375 25.089844 L 24.238281 32.484375 L 26.089844 32.484375 L 28.058594 22.640625 L 26.445312 22.640625 Z M 25.191406 30.339844 "/>
<path style=" stroke:none;fill-rule:nonzero;fill:rgb(100%,100%,100%);fill-opacity:1;" d="M 33.128906 27.117188 L 32.054688 26.757812 C 30.980469 26.339844 30.5625 25.859375 30.5625 25.027344 C 30.507812 24.515625 30.75 24.015625 31.1875 23.742188 C 31.628906 23.46875 32.183594 23.46875 32.621094 23.742188 C 33.058594 24.015625 33.300781 24.515625 33.246094 25.027344 L 33.246094 25.207031 L 34.800781 25.207031 L 34.800781 24.96875 C 34.800781 23.953125 34.5625 22.402344 31.996094 22.402344 C 31.203125 22.300781 30.40625 22.554688 29.820312 23.09375 C 29.230469 23.636719 28.914062 24.410156 28.949219 25.207031 C 28.878906 26.496094 29.769531 27.640625 31.039062 27.890625 L 32.113281 28.25 C 32.96875 28.363281 33.59375 29.117188 33.542969 29.980469 C 33.558594 30.375 33.402344 30.753906 33.117188 31.027344 C 32.832031 31.300781 32.445312 31.441406 32.054688 31.414062 C 30.980469 31.414062 30.441406 30.816406 30.441406 29.625 L 30.441406 29.386719 L 28.890625 29.386719 L 28.890625 29.625 C 28.792969 30.441406 29.074219 31.257812 29.65625 31.84375 C 30.238281 32.425781 31.058594 32.707031 31.875 32.605469 C 33.84375 32.605469 35.15625 31.773438 35.15625 29.683594 C 35.171875 28.457031 34.324219 27.382812 33.128906 27.117188 Z M 33.128906 27.117188 "/>
</g>
</svg>
