<?xml version="1.0" encoding="UTF-8"?>
<svg xmlns="http://www.w3.org/2000/svg" xmlns:xlink="http://www.w3.org/1999/xlink" width="48px" height="48px" viewBox="0 0 48 48" version="1.1">
<defs>
<linearGradient id="linear0" gradientUnits="userSpaceOnUse" x1="16.33" y1="-2.748" x2="32.292999" y2="41.109001" >
<stop offset="0" style="stop-color:rgb(16.470588%,64.313725%,95.686275%);stop-opacity:1;"/>
<stop offset="1" style="stop-color:rgb(0%,47.843137%,85.098039%);stop-opacity:1;"/>
</linearGradient>
<filter id="alpha" filterUnits="objectBoundingBox" x="0%" y="0%" width="100%" height="100%">
  <feColorMatrix type="matrix" in="SourceGraphic" values="0 0 0 0 1 0 0 0 0 1 0 0 0 0 1 0 0 0 1 0"/>
</filter>
<mask id="mask0">
  <g filter="url(#alpha)">
<rect x="0" y="0" width="48" height="48" style="fill:rgb(0%,0%,0%);fill-opacity:0.0509804;stroke:none;"/>
  </g>
</mask>
<clipPath id="clip1">
  <rect x="0" y="0" width="48" height="48"/>
</clipPath>
<g id="surface5" clip-path="url(#clip1)">
<path style=" stroke:none;fill-rule:nonzero;fill:rgb(0%,0%,0%);fill-opacity:1;" d="M 33.101562 13 L 32.601562 21 L 31.898438 32.5 L 24 35.101562 L 16.101562 32.5 L 15.800781 27 L 19.800781 27 L 19.898438 29.5 L 24 30.898438 L 28.101562 29.5 L 28.398438 25 L 19.601562 25 L 19.398438 21 L 28.601562 21 L 28.898438 17 L 15.101562 17 L 14.800781 13 L 33.101562 13 M 34.164062 12 L 13.722656 12 L 13.804688 13.074219 L 14.101562 17.074219 L 14.171875 18 L 27.820312 18 L 27.671875 20 L 18.347656 20 L 18.402344 21.050781 L 18.601562 25.050781 L 18.648438 26 L 14.742188 26 L 14.800781 27.054688 L 15.101562 32.554688 L 15.140625 33.234375 L 15.789062 33.449219 L 23.6875 36.050781 L 24 36.152344 L 24.3125 36.050781 L 32.214844 33.449219 L 32.855469 33.238281 L 32.898438 32.5625 L 33.597656 21.0625 Z M 20.761719 26 L 27.332031 26 L 27.144531 28.769531 L 24 29.84375 L 20.871094 28.773438 L 20.800781 26.960938 Z M 20.761719 26 "/>
</g>
<mask id="mask1">
  <g filter="url(#alpha)">
<rect x="0" y="0" width="48" height="48" style="fill:rgb(0%,0%,0%);fill-opacity:0.0705882;stroke:none;"/>
  </g>
</mask>
<clipPath id="clip2">
  <rect x="0" y="0" width="48" height="48"/>
</clipPath>
<g id="surface8" clip-path="url(#clip2)">
<path style=" stroke:none;fill-rule:nonzero;fill:rgb(0%,0%,0%);fill-opacity:1;" d="M 33.101562 13 L 32.601562 21 L 31.898438 32.5 L 24 35.101562 L 16.101562 32.5 L 15.800781 27 L 19.800781 27 L 19.898438 29.5 L 24 30.898438 L 28.101562 29.5 L 28.398438 25 L 19.601562 25 L 19.398438 21 L 28.601562 21 L 28.898438 17 L 15.101562 17 L 14.800781 13 L 33.101562 13 M 33.632812 12.5 L 14.261719 12.5 L 14.300781 13.035156 L 14.601562 17.035156 L 14.636719 17.5 L 28.359375 17.5 L 28.136719 20.5 L 18.875 20.5 L 18.898438 21.023438 L 19.101562 25.023438 L 19.125 25.5 L 27.867188 25.5 L 27.625 29.132812 L 24 30.371094 L 20.386719 29.136719 L 20.300781 26.980469 L 20.28125 26.5 L 15.273438 26.5 L 15.300781 27.027344 L 15.601562 32.527344 L 15.621094 32.867188 L 15.945312 32.976562 L 23.84375 35.574219 L 24 35.625 L 24.15625 35.574219 L 32.054688 32.976562 L 32.378906 32.867188 L 32.398438 32.53125 L 33.097656 21.03125 L 33.597656 13.03125 Z M 33.632812 12.5 "/>
</g>
</defs>
<g id="surface1">
<path style=" stroke:none;fill-rule:nonzero;fill:url(#linear0);" d="M 7.191406 7.175781 L 9.820312 36.945312 C 9.929688 38.183594 10.789062 39.226562 11.984375 39.566406 L 22.625 42.609375 C 23.523438 42.863281 24.476562 42.863281 25.371094 42.609375 L 36.015625 39.566406 C 37.210938 39.226562 38.070312 38.183594 38.179688 36.945312 L 40.808594 7.175781 C 40.910156 6.007812 39.988281 5 38.816406 5 L 9.183594 5 C 8.011719 5 7.089844 6.007812 7.191406 7.175781 Z M 7.191406 7.175781 "/>
<path style=" stroke:none;fill-rule:nonzero;fill:rgb(20.784314%,75.686276%,94.509804%);fill-opacity:1;" d="M 24 8 L 24 39.898438 L 33.875 37.078125 C 34.671875 36.851562 35.246094 36.152344 35.320312 35.328125 L 37.605469 9.085938 C 37.65625 8.503906 37.195312 8 36.609375 8 Z M 24 8 "/>
<path style=" stroke:none;fill-rule:nonzero;fill:rgb(100%,100%,100%);fill-opacity:1;" d="M 33.101562 13 L 24 13 L 24 17 L 28.898438 17 L 28.601562 21 L 24 21 L 24 25 L 28.398438 25 L 28.101562 29.5 L 24 30.898438 L 24 35.101562 L 31.898438 32.5 L 32.601562 21 Z M 33.101562 13 "/>
<path style=" stroke:none;fill-rule:nonzero;fill:rgb(83.92157%,87.843138%,91.37255%);fill-opacity:1;" d="M 24 13 L 24 17 L 15.101562 17 L 14.800781 13 Z M 19.398438 21 L 19.601562 25 L 24 25 L 24 21 Z M 19.800781 27 L 15.800781 27 L 16.101562 32.5 L 24 35.101562 L 24 30.898438 L 19.898438 29.5 Z M 19.800781 27 "/>
<use xlink:href="#surface5" mask="url(#mask0)"/>
<use xlink:href="#surface8" mask="url(#mask1)"/>
</g>
</svg>
