<?xml version="1.0" encoding="UTF-8"?>
<svg xmlns="http://www.w3.org/2000/svg" xmlns:xlink="http://www.w3.org/1999/xlink" width="48px" height="48px" viewBox="0 0 48 48" version="1.1">
<g id="surface1">
<path style=" stroke:none;fill-rule:nonzero;fill:rgb(22.745098%,30.588236%,33.333334%);fill-opacity:1;" d="M 27.285156 19.605469 L 31.050781 19.605469 L 31.050781 23.457031 L 32.953125 23.457031 C 33.84375 23.453125 34.726562 23.304688 35.570312 23.015625 C 36.015625 22.871094 36.441406 22.679688 36.84375 22.441406 C 36.328125 21.730469 36.019531 20.886719 35.960938 20.007812 C 35.800781 18.726562 36.132812 17.433594 36.882812 16.382812 L 37.28125 15.925781 L 37.75 16.304688 C 39 17.222656 39.847656 18.585938 40.113281 20.113281 C 41.566406 19.667969 43.136719 19.8125 44.484375 20.519531 L 45 20.820312 L 44.726562 21.351562 C 43.601562 23.25 41.441406 24.28125 39.257812 23.960938 C 35.996094 32.082031 28.90625 35.925781 20.292969 35.925781 C 15.925781 36.183594 11.761719 34.03125 9.449219 30.316406 L 9.414062 30.253906 L 9.074219 29.5625 C 8.308594 27.824219 8.007812 25.914062 8.203125 24.023438 L 8.257812 23.453125 L 11.472656 23.453125 L 11.472656 19.605469 L 15.238281 19.605469 L 15.238281 15.839844 L 22.765625 15.839844 L 22.765625 12.078125 L 27.285156 12.078125 Z M 27.285156 19.605469 "/>
<path style=" stroke:none;fill-rule:nonzero;fill:rgb(0%,66.666669%,85.490197%);fill-opacity:1;" d="M 39.484375 21.03125 C 39.539062 19.351562 38.738281 17.761719 37.359375 16.800781 C 36.148438 18.578125 36.328125 20.957031 37.792969 22.53125 C 36.394531 23.566406 34.695312 24.113281 32.953125 24.085938 L 8.824219 24.085938 C 8.617188 26.011719 8.964844 27.957031 9.824219 29.691406 L 10.097656 30.195312 C 10.273438 30.488281 10.464844 30.773438 10.667969 31.046875 C 11.660156 31.113281 12.574219 31.136719 13.410156 31.117188 C 14.769531 31.125 16.117188 30.925781 17.414062 30.53125 C 17.46875 31.125 17.328125 31.171875 17.183594 31.210938 C 16.28125 31.464844 15.351562 31.617188 14.414062 31.660156 C 14.480469 31.660156 14.347656 31.671875 14.347656 31.671875 L 14.222656 31.683594 C 13.785156 31.707031 13.324219 31.714844 12.835938 31.714844 C 12.308594 31.714844 11.785156 31.703125 11.210938 31.675781 L 11.195312 31.683594 C 13.5625 34.148438 16.878906 35.464844 20.289062 35.300781 C 28.628906 35.300781 35.703125 31.601562 38.839844 23.300781 C 41.0625 23.527344 43.195312 22.960938 44.167969 21.066406 C 42.699219 20.320312 40.964844 20.308594 39.484375 21.03125 "/>
<path style=" stroke:none;fill-rule:nonzero;fill:rgb(15.294118%,72.549021%,92.54902%);fill-opacity:1;" d="M 39.484375 21.03125 C 39.539062 19.351562 38.738281 17.761719 37.359375 16.800781 C 36.148438 18.578125 36.328125 20.957031 37.792969 22.53125 C 36.394531 23.566406 34.695312 24.113281 32.953125 24.085938 L 10.253906 24.085938 C 10.003906 26.820312 11.199219 29.488281 13.414062 31.117188 C 14.769531 31.125 16.117188 30.925781 17.417969 30.53125 C 17.46875 31.125 17.328125 31.171875 17.183594 31.210938 C 16.257812 31.472656 15.304688 31.628906 14.34375 31.683594 L 14.316406 31.648438 C 17.152344 33.105469 21.269531 33.101562 25.988281 31.289062 C 31.371094 29.113281 36.082031 25.546875 39.636719 20.953125 L 39.488281 21.027344 "/>
<path style=" stroke:none;fill-rule:nonzero;fill:rgb(3.137255%,54.901963%,72.549021%);fill-opacity:1;" d="M 8.871094 26.597656 C 9.011719 27.675781 9.335938 28.71875 9.824219 29.691406 L 10.097656 30.191406 C 10.273438 30.488281 10.464844 30.773438 10.667969 31.046875 C 11.660156 31.109375 12.574219 31.132812 13.410156 31.113281 C 14.769531 31.121094 16.117188 30.925781 17.414062 30.53125 C 17.46875 31.125 17.328125 31.167969 17.183594 31.210938 C 16.257812 31.464844 15.304688 31.621094 14.347656 31.667969 L 14.195312 31.667969 C 13.757812 31.695312 13.296875 31.707031 12.8125 31.707031 C 12.285156 31.707031 11.75 31.699219 11.164062 31.667969 C 13.539062 34.132812 16.859375 35.453125 20.277344 35.289062 C 27.417969 35.289062 33.628906 32.578125 37.226562 26.589844 Z M 8.871094 26.597656 "/>
<path style=" stroke:none;fill-rule:nonzero;fill:rgb(1.176471%,61.176473%,78.039217%);fill-opacity:1;" d="M 10.46875 26.597656 C 10.832031 28.425781 11.886719 30.042969 13.410156 31.113281 C 14.769531 31.121094 16.117188 30.925781 17.414062 30.53125 C 17.46875 31.125 17.328125 31.167969 17.183594 31.210938 C 16.25 31.464844 15.296875 31.617188 14.332031 31.667969 C 17.171875 33.125 21.273438 33.105469 25.992188 31.292969 C 28.902344 30.144531 31.621094 28.5625 34.058594 26.597656 Z M 10.46875 26.597656 "/>
<path style=" stroke:none;fill-rule:nonzero;fill:rgb(0%,67.450982%,82.745099%);fill-opacity:1;" d="M 14.832031 20.507812 L 15.089844 20.507812 L 15.089844 23.226562 L 14.832031 23.226562 Z M 14.339844 20.507812 L 14.605469 20.507812 L 14.605469 23.226562 L 14.339844 23.226562 Z M 13.84375 20.507812 L 14.113281 20.507812 L 14.113281 23.226562 L 13.84375 23.226562 Z M 13.347656 20.507812 L 13.617188 20.507812 L 13.617188 23.226562 L 13.351562 23.226562 L 13.351562 20.507812 Z M 12.851562 20.507812 L 13.121094 20.507812 L 13.121094 23.226562 L 12.855469 23.226562 L 12.855469 20.507812 Z M 12.367188 20.507812 L 12.628906 20.507812 L 12.628906 23.226562 L 12.371094 23.226562 L 12.371094 20.507812 Z M 12.097656 20.234375 L 15.359375 20.234375 L 15.359375 23.5 L 12.097656 23.5 Z M 12.097656 20.234375 "/>
<path style=" stroke:none;fill-rule:nonzero;fill:rgb(0%,67.450982%,82.745099%);fill-opacity:1;" d="M 18.601562 16.742188 L 18.859375 16.742188 L 18.859375 19.460938 L 18.601562 19.460938 Z M 18.105469 16.742188 L 18.375 16.742188 L 18.375 19.460938 L 18.105469 19.460938 Z M 17.609375 16.742188 L 17.878906 16.742188 L 17.878906 19.460938 L 17.609375 19.460938 Z M 17.113281 16.742188 L 17.382812 16.742188 L 17.382812 19.460938 L 17.113281 19.460938 Z M 16.621094 16.742188 L 16.886719 16.742188 L 16.886719 19.460938 L 16.621094 19.460938 Z M 16.136719 16.742188 L 16.394531 16.742188 L 16.394531 19.460938 L 16.136719 19.460938 Z M 15.863281 16.46875 L 19.128906 16.46875 L 19.128906 19.734375 L 15.867188 19.734375 L 15.867188 16.46875 Z M 15.863281 16.46875 "/>
<path style=" stroke:none;fill-rule:nonzero;fill:rgb(14.901961%,76.078433%,93.333334%);fill-opacity:1;" d="M 18.601562 20.507812 L 18.859375 20.507812 L 18.859375 23.226562 L 18.601562 23.226562 Z M 18.105469 20.507812 L 18.375 20.507812 L 18.375 23.226562 L 18.105469 23.226562 Z M 17.609375 20.507812 L 17.878906 20.507812 L 17.878906 23.226562 L 17.609375 23.226562 Z M 17.113281 20.507812 L 17.382812 20.507812 L 17.382812 23.226562 L 17.113281 23.226562 Z M 16.621094 20.507812 L 16.886719 20.507812 L 16.886719 23.226562 L 16.621094 23.226562 Z M 16.136719 20.507812 L 16.394531 20.507812 L 16.394531 23.226562 L 16.136719 23.226562 Z M 15.863281 20.234375 L 19.128906 20.234375 L 19.128906 23.5 L 15.867188 23.5 L 15.867188 20.234375 Z M 15.863281 20.234375 "/>
<path style=" stroke:none;fill-rule:nonzero;fill:rgb(0%,67.450982%,82.745099%);fill-opacity:1;" d="M 22.363281 20.507812 L 22.621094 20.507812 L 22.621094 23.226562 L 22.363281 23.226562 Z M 21.867188 20.507812 L 22.136719 20.507812 L 22.136719 23.226562 L 21.871094 23.226562 L 21.871094 20.507812 Z M 21.375 20.507812 L 21.640625 20.507812 L 21.640625 23.226562 L 21.375 23.226562 Z M 20.878906 20.507812 L 21.148438 20.507812 L 21.148438 23.226562 L 20.882812 23.226562 L 20.882812 20.507812 Z M 20.382812 20.507812 L 20.652344 20.507812 L 20.652344 23.226562 L 20.382812 23.226562 Z M 19.898438 20.507812 L 20.15625 20.507812 L 20.15625 23.226562 L 19.898438 23.226562 Z M 19.628906 20.234375 L 22.890625 20.234375 L 22.890625 23.5 L 19.628906 23.5 Z M 19.628906 20.234375 "/>
<path style=" stroke:none;fill-rule:nonzero;fill:rgb(14.901961%,76.078433%,93.333334%);fill-opacity:1;" d="M 22.363281 16.742188 L 22.621094 16.742188 L 22.621094 19.460938 L 22.363281 19.460938 Z M 21.867188 16.742188 L 22.136719 16.742188 L 22.136719 19.460938 L 21.871094 19.460938 L 21.871094 16.742188 Z M 21.375 16.742188 L 21.640625 16.742188 L 21.640625 19.460938 L 21.375 19.460938 Z M 20.878906 16.742188 L 21.148438 16.742188 L 21.148438 19.460938 L 20.882812 19.460938 L 20.882812 16.742188 Z M 20.382812 16.742188 L 20.652344 16.742188 L 20.652344 19.460938 L 20.382812 19.460938 Z M 19.898438 16.742188 L 20.15625 16.742188 L 20.15625 19.460938 L 19.898438 19.460938 Z M 19.628906 16.46875 L 22.890625 16.46875 L 22.890625 19.734375 L 19.628906 19.734375 Z M 19.628906 16.46875 "/>
<path style=" stroke:none;fill-rule:nonzero;fill:rgb(14.901961%,76.078433%,93.333334%);fill-opacity:1;" d="M 26.128906 20.507812 L 26.386719 20.507812 L 26.386719 23.226562 L 26.128906 23.226562 Z M 25.636719 20.507812 L 25.902344 20.507812 L 25.902344 23.226562 L 25.636719 23.226562 Z M 25.140625 20.507812 L 25.410156 20.507812 L 25.410156 23.226562 L 25.140625 23.226562 Z M 24.644531 20.507812 L 24.914062 20.507812 L 24.914062 23.226562 L 24.644531 23.226562 Z M 24.148438 20.507812 L 24.417969 20.507812 L 24.417969 23.226562 L 24.148438 23.226562 Z M 23.664062 20.507812 L 23.921875 20.507812 L 23.921875 23.226562 L 23.664062 23.226562 Z M 23.398438 20.234375 L 26.664062 20.234375 L 26.664062 23.5 L 23.398438 23.5 Z M 23.398438 20.234375 "/>
<path style=" stroke:none;fill-rule:nonzero;fill:rgb(0%,67.450982%,82.745099%);fill-opacity:1;" d="M 26.128906 16.742188 L 26.386719 16.742188 L 26.386719 19.460938 L 26.128906 19.460938 Z M 25.636719 16.742188 L 25.902344 16.742188 L 25.902344 19.460938 L 25.636719 19.460938 Z M 25.140625 16.742188 L 25.410156 16.742188 L 25.410156 19.460938 L 25.140625 19.460938 Z M 24.644531 16.742188 L 24.914062 16.742188 L 24.914062 19.460938 L 24.644531 19.460938 Z M 24.148438 16.742188 L 24.417969 16.742188 L 24.417969 19.460938 L 24.148438 19.460938 Z M 23.664062 16.742188 L 23.921875 16.742188 L 23.921875 19.460938 L 23.664062 19.460938 Z M 23.394531 16.46875 L 26.65625 16.46875 L 26.65625 19.734375 L 23.398438 19.734375 L 23.398438 16.46875 Z M 23.394531 16.46875 "/>
<path style=" stroke:none;fill-rule:nonzero;fill:rgb(14.901961%,76.078433%,93.333334%);fill-opacity:1;" d="M 26.128906 12.976562 L 26.386719 12.976562 L 26.386719 15.695312 L 26.128906 15.695312 Z M 25.636719 12.976562 L 25.902344 12.976562 L 25.902344 15.695312 L 25.636719 15.695312 Z M 25.140625 12.976562 L 25.410156 12.976562 L 25.410156 15.695312 L 25.140625 15.695312 Z M 24.644531 12.976562 L 24.914062 12.976562 L 24.914062 15.695312 L 24.644531 15.695312 Z M 24.148438 12.976562 L 24.417969 12.976562 L 24.417969 15.695312 L 24.148438 15.695312 Z M 23.664062 12.976562 L 23.921875 12.976562 L 23.921875 15.695312 L 23.664062 15.695312 Z M 23.398438 12.703125 L 26.664062 12.703125 L 26.664062 15.96875 L 23.398438 15.96875 Z M 23.398438 12.703125 "/>
<path style=" stroke:none;fill-rule:nonzero;fill:rgb(0%,67.450982%,82.745099%);fill-opacity:1;" d="M 29.894531 20.507812 L 30.148438 20.507812 L 30.148438 23.226562 L 29.894531 23.226562 Z M 29.398438 20.507812 L 29.667969 20.507812 L 29.667969 23.226562 L 29.398438 23.226562 Z M 28.90625 20.507812 L 29.171875 20.507812 L 29.171875 23.226562 L 28.90625 23.226562 Z M 28.410156 20.507812 L 28.679688 20.507812 L 28.679688 23.226562 L 28.410156 23.226562 Z M 27.914062 20.507812 L 28.183594 20.507812 L 28.183594 23.226562 L 27.914062 23.226562 Z M 27.429688 20.507812 L 27.6875 20.507812 L 27.6875 23.226562 L 27.429688 23.226562 Z M 27.160156 20.234375 L 30.421875 20.234375 L 30.421875 23.5 L 27.160156 23.5 Z M 27.160156 20.234375 "/>
<path style=" stroke:none;fill-rule:nonzero;fill:rgb(83.529413%,93.333334%,94.901961%);fill-opacity:1;" d="M 18.925781 28.789062 C 19.421875 28.789062 19.824219 29.191406 19.824219 29.691406 C 19.824219 30.1875 19.421875 30.589844 18.925781 30.589844 C 18.425781 30.589844 18.023438 30.1875 18.023438 29.691406 C 18.023438 29.191406 18.425781 28.789062 18.925781 28.789062 "/>
<path style=" stroke:none;fill-rule:nonzero;fill:rgb(22.745098%,30.588236%,33.333334%);fill-opacity:1;" d="M 18.925781 29.042969 C 19.628906 29.703125 19.554688 30.007812 19.335938 30.1875 C 19.117188 30.367188 18.804688 30.382812 18.566406 30.226562 C 18.332031 30.070312 18.226562 29.777344 18.304688 29.503906 C 18.386719 29.234375 18.636719 29.046875 18.917969 29.042969 "/>
<path style=" stroke:none;fill-rule:nonzero;fill:rgb(22.745098%,30.588236%,33.333334%);fill-opacity:1;" d="M 3 26.921875 L 44.878906 26.921875 C 43.96875 26.691406 41.996094 26.378906 42.320312 25.183594 C 40.660156 27.101562 36.664062 26.535156 35.652344 25.585938 C 34.53125 27.214844 27.988281 26.597656 27.53125 25.324219 C 26.121094 26.976562 21.757812 26.976562 20.347656 25.324219 C 19.898438 26.597656 13.347656 27.214844 12.226562 25.585938 C 11.214844 26.53125 7.21875 27.101562 5.558594 25.183594 C 5.882812 26.386719 3.910156 26.691406 3 26.921875 "/>
<path style=" stroke:none;fill-rule:nonzero;fill:rgb(75.294119%,85.882354%,88.235295%);fill-opacity:1;" d="M 21.316406 35.277344 C 19.472656 34.492188 17.996094 33.039062 17.183594 31.210938 C 16.207031 31.46875 15.207031 31.621094 14.203125 31.660156 C 13.765625 31.683594 13.308594 31.695312 12.828125 31.699219 C 12.273438 31.699219 11.6875 31.679688 11.074219 31.648438 C 13.472656 34.144531 16.835938 35.476562 20.292969 35.292969 C 20.636719 35.292969 20.976562 35.285156 21.316406 35.273438 "/>
<path style=" stroke:none;fill-rule:nonzero;fill:rgb(83.529413%,93.333334%,94.901961%);fill-opacity:1;" d="M 18.011719 32.660156 C 17.683594 32.207031 17.40625 31.722656 17.183594 31.210938 C 16.207031 31.46875 15.207031 31.621094 14.203125 31.660156 C 15.386719 32.253906 16.683594 32.59375 18.011719 32.65625 "/>
</g>
</svg>
