<?xml version="1.0" encoding="UTF-8"?>
<svg xmlns="http://www.w3.org/2000/svg" xmlns:xlink="http://www.w3.org/1999/xlink" width="48px" height="48px" viewBox="0 0 48 48" version="1.1">
<g id="surface1">
<path style=" stroke:none;fill-rule:nonzero;fill:rgb(10.196079%,73.725492%,99.607843%);fill-opacity:1;" d="M 25.648438 24 C 25.648438 20.132812 28.707031 17 32.476562 17 C 36.246094 17 39.300781 20.128906 39.300781 24 C 39.300781 27.867188 36.246094 31 32.476562 31 C 28.710938 31 25.648438 27.871094 25.648438 24 Z M 25.648438 24 "/>
<path style=" stroke:none;fill-rule:nonzero;fill:rgb(3.921569%,81.176472%,51.372552%);fill-opacity:1;" d="M 12 38 C 12 34.132812 15.058594 31 18.824219 31 L 25.648438 31 L 25.648438 38 C 25.648438 41.863281 22.59375 45 18.824219 45 C 15.058594 45 12 41.863281 12 38 Z M 12 38 "/>
<path style=" stroke:none;fill-rule:nonzero;fill:rgb(100%,44.705883%,38.431373%);fill-opacity:1;" d="M 25.648438 3 L 25.648438 17 L 32.476562 17 C 36.246094 17 39.300781 13.867188 39.300781 10 C 39.300781 6.136719 36.246094 3 32.476562 3 Z M 25.648438 3 "/>
<path style=" stroke:none;fill-rule:nonzero;fill:rgb(94.901961%,30.588236%,11.764706%);fill-opacity:1;" d="M 12 10 C 12 13.867188 15.058594 17 18.824219 17 L 25.648438 17 L 25.648438 3 L 18.824219 3 C 15.058594 3 12 6.136719 12 10 Z M 12 10 "/>
<path style=" stroke:none;fill-rule:nonzero;fill:rgb(63.529414%,34.901962%,100%);fill-opacity:1;" d="M 12 24 C 12 27.867188 15.058594 31 18.824219 31 L 25.648438 31 L 25.648438 17 L 18.824219 17 C 15.058594 17 12 20.128906 12 24 Z M 12 24 "/>
</g>
</svg>
