<?xml version="1.0" encoding="UTF-8"?>
<svg xmlns="http://www.w3.org/2000/svg" xmlns:xlink="http://www.w3.org/1999/xlink" width="48px" height="48px" viewBox="0 0 48 78" version="1.1">
<g id="surface1">
<path style=" stroke:none;fill-rule:nonzero;fill:rgb(82.745099%,21.960784%,20%);fill-opacity:1;" d="M 47.007812 31.664062 C 47.007812 44.65625 36.683594 55.199219 23.941406 55.199219 C 11.199219 55.199219 0.875 44.65625 0.875 31.664062 C 0.875 18.671875 11.199219 8.128906 23.941406 8.128906 C 36.683594 8.128906 47.007812 18.671875 47.007812 31.664062 "/>
<path style=" stroke:none;fill-rule:nonzero;fill:rgb(93.725491%,23.921569%,22.745098%);fill-opacity:1;" d="M 1.824219 37.492188 C 1.824219 37.492188 0.148438 12.957031 22.824219 12.25 L 21.242188 9.613281 L 8.949219 13.734375 L 5.433594 17.761719 L 2.363281 23.625 L 0.613281 30.457031 L 1.136719 35.023438 "/>
<path style=" stroke:none;fill-rule:nonzero;fill:rgb(13.725491%,12.156863%,12.54902%);fill-opacity:1;" d="M 8.148438 15.609375 C 4.109375 19.746094 1.601562 25.445312 1.601562 31.757812 C 1.601562 38.066406 4.109375 43.765625 8.148438 47.902344 C 12.203125 52.042969 17.765625 54.585938 23.941406 54.585938 C 30.117188 54.585938 35.679688 52.042969 39.734375 47.902344 C 43.769531 43.765625 46.28125 38.066406 46.28125 31.757812 C 46.28125 25.445312 43.769531 19.746094 39.734375 15.609375 C 35.679688 11.488281 30.117188 8.925781 23.941406 8.925781 C 17.785156 8.925781 12.203125 11.46875 8.148438 15.609375 Z M 7.125 48.886719 C 2.828125 44.507812 0.167969 38.4375 0.167969 31.757812 C 0.167969 25.074219 2.828125 19.003906 7.125 14.605469 C 11.421875 10.226562 17.375 7.5 23.941406 7.5 C 30.507812 7.5 36.460938 10.226562 40.757812 14.605469 C 45.054688 18.988281 47.714844 25.054688 47.714844 31.757812 C 47.714844 38.4375 45.054688 44.507812 40.757812 48.886719 C 36.460938 53.285156 30.507812 55.996094 23.941406 55.996094 C 17.375 55.996094 11.421875 53.285156 7.125 48.886719 Z M 7.125 48.886719 "/>
<path style=" stroke:none;fill-rule:nonzero;fill:rgb(94.117647%,83.92157%,71.764708%);fill-opacity:1;" d="M 33.652344 31.792969 L 30.136719 32.3125 L 25.390625 32.851562 L 22.324219 32.925781 L 19.328125 32.832031 L 17.039062 32.128906 L 15.011719 29.9375 L 13.429688 25.464844 L 13.078125 24.5 L 10.976562 23.792969 L 9.746094 21.769531 L 8.875 18.875 L 9.839844 16.332031 L 12.128906 15.535156 L 13.96875 16.40625 L 14.84375 18.335938 L 15.90625 18.171875 L 16.257812 17.726562 L 15.90625 15.703125 L 15.8125 13.160156 L 16.332031 9.652344 L 16.3125 7.648438 L 17.914062 5.085938 L 20.722656 3.0625 L 25.632812 0.964844 L 31.082031 1.761719 L 35.828125 5.179688 L 38.023438 8.6875 L 39.4375 11.230469 L 39.789062 17.539062 L 38.730469 22.976562 L 36.792969 27.804688 L 34.972656 30.382812 "/>
<path style=" stroke:none;fill-rule:nonzero;fill:rgb(20%,31.37255%,38.039216%);fill-opacity:1;" d="M 30.675781 46.957031 L 18.117188 47.476562 L 18.117188 49.574219 L 19.179688 56.941406 L 18.65625 57.554688 L 9.878906 54.566406 L 9.265625 53.507812 L 8.390625 43.597656 L 6.324219 37.660156 L 5.878906 36.246094 L 12.910156 31.421875 L 15.105469 30.550781 L 17.039062 32.925781 L 18.714844 34.410156 L 20.648438 35.023438 L 21.523438 35.28125 L 22.582031 39.847656 L 23.382812 40.8125 L 25.410156 40.109375 L 23.996094 42.835938 L 31.625 46.4375 L 30.675781 46.957031 "/>
<path style=" stroke:none;fill-rule:nonzero;fill:rgb(42.745098%,41.960785%,42.745098%);fill-opacity:1;" d="M 9.839844 16.371094 L 12.128906 15.570312 L 13.96875 16.445312 L 14.84375 18.375 L 15.90625 18.207031 L 16.164062 17.148438 L 15.644531 15.125 L 16.164062 10.300781 L 15.71875 7.664062 L 17.300781 5.828125 L 20.722656 3.117188 L 19.753906 1.800781 L 14.917969 4.175781 L 12.890625 5.753906 L 11.757812 8.203125 L 10.007812 10.578125 L 9.488281 13.382812 L 9.839844 16.371094 "/>
<path style=" stroke:none;fill-rule:nonzero;fill:rgb(86.274511%,85.09804%,84.705883%);fill-opacity:1;" d="M 13.449219 8.128906 C 13.449219 8.128906 14.769531 4.882812 20.035156 3.304688 C 25.296875 1.726562 20.292969 2.171875 20.292969 2.171875 L 14.582031 4.363281 L 12.390625 6.550781 L 11.421875 8.296875 L 13.449219 8.128906 M 10.808594 15.757812 C 10.808594 15.757812 8.964844 9.613281 15.996094 8.742188 L 15.738281 7.683594 L 10.902344 8.816406 L 9.488281 13.382812 L 9.839844 16.371094 L 10.808594 15.757812 "/>
<path style=" stroke:none;fill-rule:nonzero;fill:rgb(96.862745%,89.411765%,80.392158%);fill-opacity:1;" d="M 13.617188 23.90625 L 14.769531 22.792969 C 14.769531 22.792969 15.289062 22.847656 15.382812 23.460938 C 15.476562 24.074219 15.738281 29.601562 19.511719 32.574219 C 19.867188 32.851562 16.703125 32.128906 16.703125 32.128906 L 13.894531 27.746094 M 29.78125 22.234375 C 29.78125 22.234375 29.984375 19.582031 30.710938 19.785156 C 31.4375 19.988281 31.4375 20.710938 31.4375 20.710938 C 31.4375 20.710938 29.6875 21.828125 29.78125 22.234375 M 37.074219 12.507812 C 37.074219 12.507812 35.621094 12.804688 35.492188 14.085938 C 35.363281 15.367188 37.074219 14.347656 37.332031 14.253906 M 26.453125 12.601562 C 26.453125 12.601562 24.515625 12.863281 24.515625 14.085938 C 24.515625 15.3125 26.710938 15.21875 27.324219 14.699219 M 14.507812 18.300781 C 14.507812 18.300781 11.179688 16.277344 10.828125 18.207031 C 10.472656 20.136719 9.691406 21.53125 11.347656 23.550781 L 10.210938 23.199219 L 9.152344 20.492188 L 8.796875 17.855469 L 10.828125 15.757812 L 13.113281 15.925781 L 14.433594 16.984375 L 14.507812 18.300781 M 16.089844 12.769531 C 16.089844 12.769531 17.578125 5.046875 25.132812 3.5625 C 31.34375 2.339844 34.617188 3.824219 35.847656 5.234375 C 35.847656 5.234375 30.300781 -1.335938 25.039062 0.667969 C 19.773438 2.691406 15.90625 6.367188 15.996094 8.722656 C 16.144531 12.769531 16.089844 12.769531 16.089844 12.769531 M 36.460938 6.105469 C 36.460938 6.105469 33.910156 6.011719 33.816406 8.296875 C 33.816406 8.296875 33.816406 8.648438 33.984375 9 C 33.984375 9 36.011719 6.71875 37.242188 7.945312 "/>
<path style=" stroke:none;fill-rule:nonzero;fill:rgb(96.862745%,89.411765%,80.392158%);fill-opacity:1;" d="M 25.316406 9.242188 C 25.316406 9.242188 24.871094 5.753906 21.894531 7.777344 C 19.960938 9.09375 20.144531 10.933594 20.480469 11.285156 C 20.835938 11.636719 20.742188 12.34375 21 11.859375 C 21.261719 11.378906 21.1875 9.800781 22.15625 9.355469 C 23.101562 8.910156 24.703125 8.425781 25.316406 9.242188 "/>
<path style=" stroke:none;fill-rule:nonzero;fill:rgb(28.627452%,44.705883%,54.509807%);fill-opacity:1;" d="M 17.058594 32.925781 L 8.796875 36.601562 C 8.796875 36.601562 12.222656 50.1875 10.472656 54.398438 L 9.246094 53.953125 L 9.152344 48.777344 L 6.863281 38.976562 L 5.898438 36.265625 L 14.507812 30.476562 L 17.058594 32.925781 M 17.894531 40.441406 L 19.066406 41.871094 L 19.066406 47.125 L 17.671875 47.125 C 17.671875 47.125 17.503906 43.449219 17.503906 43.003906 C 17.503906 42.558594 17.671875 40.980469 17.671875 40.980469 M 17.933594 47.921875 L 13.96875 48.089844 L 15.105469 48.886719 L 17.914062 49.332031 "/>
<path style=" stroke:none;fill-rule:nonzero;fill:rgb(20%,31.37255%,38.039216%);fill-opacity:1;" d="M 31.457031 47.050781 L 34.710938 46.957031 L 35.511719 55.011719 L 32.179688 55.457031 L 31.457031 47.050781 "/>
<path style=" stroke:none;fill-rule:nonzero;fill:rgb(20%,31.37255%,38.039216%);fill-opacity:1;" d="M 32.332031 47.050781 L 37.242188 46.789062 C 37.242188 46.789062 39.269531 41.703125 39.269531 41.445312 C 39.269531 41.183594 41.015625 34.078125 41.015625 34.078125 L 37.054688 29.957031 L 36.253906 29.25 L 34.152344 31.347656 L 34.152344 39.496094 L 32.332031 47.050781 "/>
<path style=" stroke:none;fill-rule:nonzero;fill:rgb(28.627452%,44.705883%,54.509807%);fill-opacity:1;" d="M 34.523438 46.4375 L 31.457031 47.050781 L 31.902344 49.5 C 33.035156 50.019531 34.972656 48.628906 34.972656 48.628906 M 34.617188 31.089844 L 40.773438 35.652344 L 40.941406 33.554688 L 36.292969 29.269531 L 34.617188 31.089844 "/>
<path style=" stroke:none;fill-rule:nonzero;fill:rgb(100%,100%,100%);fill-opacity:1;" d="M 20.984375 64.308594 L 19.160156 56.941406 L 18.25 51.503906 L 18.101562 47.476562 L 26.339844 47.03125 L 31.457031 47.03125 L 30.992188 56.238281 L 31.789062 63.34375 L 31.699219 64.664062 L 25.019531 65.183594 L 20.984375 64.308594 "/>
<path style=" stroke:none;fill-rule:nonzero;fill:rgb(86.274511%,85.09804%,84.705883%);fill-opacity:1;" d="M 30.320312 46.957031 C 30.320312 46.957031 29.875 56.070312 31.195312 62.566406 C 31.195312 62.566406 28.554688 64.234375 24.703125 64.664062 L 32.089844 64.402344 L 32.960938 63.882812 L 31.902344 49.519531 L 31.625 46.4375 "/>
<path style=" stroke:none;fill-rule:nonzero;fill:rgb(100%,100%,100%);fill-opacity:1;" d="M 35.640625 54.324219 L 39.0625 53.359375 L 45.554688 53.007812 L 46.523438 50.019531 L 44.773438 44.839844 L 42.746094 44.582031 L 39.9375 45.453125 L 37.257812 46.769531 L 35.828125 46.511719 L 34.710938 46.957031 "/>
<path style=" stroke:none;fill-rule:nonzero;fill:rgb(86.274511%,85.09804%,84.705883%);fill-opacity:1;" d="M 35.585938 52.5625 C 35.585938 52.5625 37.875 51.503906 38.226562 51.597656 L 37.257812 46.769531 L 38.394531 46.324219 C 38.394531 46.324219 39.195312 50.890625 39.195312 51.410156 C 39.195312 51.410156 44.105469 51.671875 44.550781 51.671875 C 44.550781 51.671875 45.613281 49.648438 45.351562 47.550781 L 46.320312 50.351562 L 46.410156 51.929688 L 44.996094 54.027344 L 43.417969 54.382812 L 40.773438 54.289062 L 39.902344 53.15625 L 36.832031 53.601562 L 35.863281 53.953125 "/>
<path style=" stroke:none;fill-rule:nonzero;fill:rgb(100%,100%,100%);fill-opacity:1;" d="M 32.125 46.34375 L 30.191406 41.445312 L 28.164062 38.550781 C 28.164062 38.550781 28.609375 37.324219 29.222656 37.324219 L 31.25 37.324219 L 33.1875 38.03125 L 33.019531 41.277344 L 32.125 46.34375 "/>
<path style=" stroke:none;fill-rule:nonzero;fill:rgb(86.274511%,85.09804%,84.705883%);fill-opacity:1;" d="M 32.515625 44.675781 C 32.515625 44.675781 30.0625 39.941406 30.0625 39.234375 C 30.0625 39.234375 30.507812 38.179688 31.121094 38.4375 C 31.734375 38.699219 33.054688 39.402344 33.054688 39.402344 L 33.054688 37.734375 L 30.0625 37.121094 L 28.03125 37.378906 L 31.457031 45.472656 L 32.164062 45.566406 "/>
<path style=" stroke:none;fill-rule:nonzero;fill:rgb(100%,100%,100%);fill-opacity:1;" d="M 21.765625 33.109375 L 19.328125 32.851562 L 17.039062 32.144531 L 17.039062 32.945312 L 18.15625 34.167969 L 21.671875 35.746094 "/>
<path style=" stroke:none;fill-rule:nonzero;fill:rgb(86.274511%,85.09804%,84.705883%);fill-opacity:1;" d="M 17.839844 33.371094 C 17.839844 33.371094 20.554688 34.503906 21.449219 34.242188 L 21.539062 35.300781 L 19.085938 34.78125 L 17.597656 33.722656 L 17.839844 33.371094 "/>
<path style=" stroke:none;fill-rule:nonzero;fill:rgb(82.745099%,21.960784%,20%);fill-opacity:1;" d="M 35.640625 37.621094 C 34.152344 37.585938 32.796875 37.398438 31.625 37.0625 C 31.699219 36.582031 31.546875 36.117188 31.679688 35.765625 C 32.015625 35.523438 32.554688 35.523438 33.054688 35.46875 C 32.628906 35.265625 32.015625 35.171875 31.53125 35.300781 C 31.511719 34.96875 31.363281 34.761719 31.269531 34.503906 C 32.105469 34.207031 34.078125 32.257812 35.195312 32.886719 C 35.734375 33.203125 35.957031 34.949219 35.996094 35.820312 C 36.03125 36.527344 35.921875 37.230469 35.640625 37.621094 "/>
<path style="fill-rule:nonzero;fill:rgb(0%,0%,0%);fill-opacity:1;stroke-width:2;stroke-linecap:butt;stroke-linejoin:miter;stroke:rgb(82.745099%,21.960784%,20%);stroke-opacity:1;stroke-miterlimit:4;" d="M 190.111549 201.128155 C 182.172871 200.940204 174.942631 199.9378 168.691703 198.141827 C 169.087595 195.573167 168.274975 193.088041 168.983413 191.208534 C 170.775346 189.913762 173.650772 189.913762 176.317835 189.621394 C 174.046665 188.535457 170.775346 188.034255 168.191629 188.723407 C 168.087447 186.948317 167.295663 185.841496 166.795588 184.463191 C 171.254583 182.876052 181.776979 172.455228 187.736196 175.817458 C 190.611623 177.509014 191.799299 186.8439 192.007664 191.500901 C 192.195191 195.280799 191.611771 199.039814 190.111549 201.128155 Z M 190.111549 201.128155 " transform="matrix(0.187472,0,0,0.18705,0,0)"/>
<path style=" stroke:none;fill-rule:nonzero;fill:rgb(82.745099%,21.960784%,20%);fill-opacity:1;" d="M 28.515625 35.191406 C 28.515625 35.300781 28.515625 35.414062 28.496094 35.523438 C 28.03125 35.820312 27.289062 35.820312 26.769531 36.082031 C 27.511719 36.117188 28.109375 36.304688 28.628906 36.542969 C 28.609375 36.824219 28.609375 37.121094 28.589844 37.398438 C 27.734375 37.972656 26.953125 38.847656 25.949219 39.402344 C 25.464844 39.664062 23.808594 40.332031 23.308594 40.199219 C 23.027344 40.125 22.992188 39.773438 22.878906 39.441406 C 22.636719 38.734375 22.082031 37.585938 22.023438 36.507812 C 21.96875 35.152344 21.820312 32.871094 23.289062 33.148438 C 24.480469 33.371094 25.855469 33.910156 26.769531 34.410156 C 27.34375 34.746094 27.660156 35.117188 28.515625 35.191406 "/>
<path style="fill-rule:nonzero;fill:rgb(0%,0%,0%);fill-opacity:1;stroke-width:2;stroke-linecap:butt;stroke-linejoin:miter;stroke:rgb(82.745099%,21.960784%,20%);stroke-opacity:1;stroke-miterlimit:4;" d="M 152.105908 188.138672 C 152.105908 188.723407 152.105908 189.329026 152.001726 189.913762 C 149.522191 191.500901 145.563271 191.500901 142.792026 192.90009 C 146.750947 193.088041 149.93892 194.090445 152.710165 195.364333 C 152.605982 196.867939 152.605982 198.455078 152.5018 199.9378 C 147.938623 203.007662 143.771338 207.685547 138.416376 210.650992 C 135.83266 212.05018 126.998015 215.621244 124.330953 214.911208 C 122.83073 214.514423 122.643202 212.634916 122.038946 210.859826 C 120.747087 207.079928 117.788315 200.940204 117.475769 195.176382 C 117.184059 187.929838 116.392274 175.733924 124.226771 177.216647 C 130.58188 178.407001 137.916302 181.288912 142.792026 183.961989 C 145.85498 185.757963 147.542731 187.741887 152.105908 188.138672 Z M 152.105908 188.138672 " transform="matrix(0.187472,0,0,0.18705,0,0)"/>
<path style=" stroke:none;fill-rule:nonzero;fill:rgb(82.745099%,21.960784%,20%);fill-opacity:1;" d="M 29.355469 36.804688 C 29.222656 36.0625 29.074219 35.859375 29.128906 35.207031 C 31.121094 33.890625 31.472656 37.472656 29.355469 36.804688 "/>
<path style="fill-rule:nonzero;fill:rgb(0%,0%,0%);fill-opacity:1;stroke-width:2;stroke-linecap:butt;stroke-linejoin:miter;stroke:rgb(82.745099%,21.960784%,20%);stroke-opacity:1;stroke-miterlimit:4;" d="M 156.58574 196.763522 C 155.877301 192.795673 155.085517 191.709736 155.377227 188.222206 C 166.003804 181.184495 167.879083 200.334585 156.58574 196.763522 Z M 156.58574 196.763522 " transform="matrix(0.187472,0,0,0.18705,0,0)"/>
<path style=" stroke:none;fill-rule:nonzero;fill:rgb(93.725491%,23.921569%,22.745098%);fill-opacity:1;" d="M 32.21875 37.398438 C 32.21875 37.398438 31.605469 36.527344 32.050781 36.265625 C 32.496094 36.007812 32.925781 36.265625 33.1875 35.820312 C 33.445312 35.375 33.1875 35.117188 33.277344 34.597656 C 33.371094 34.078125 33.800781 33.984375 34.246094 33.890625 C 34.691406 33.796875 35.921875 33.628906 36.085938 34.058594 L 35.566406 32.480469 L 34.507812 32.128906 L 31.175781 34.058594 L 31.007812 35.023438 L 31.007812 36.953125 M 22.992188 40.292969 C 22.878906 38.921875 22.769531 37.566406 22.65625 36.191406 C 22.472656 34.152344 23.140625 34.503906 24.925781 34.503906 C 25.207031 34.503906 26.601562 34.820312 26.695312 35.023438 C 27.175781 36.007812 25.894531 35.785156 27.25 36.527344 C 28.386719 37.136719 30.414062 36.15625 29.949219 34.761719 C 29.6875 34.449219 28.609375 34.671875 28.21875 34.464844 L 26.152344 33.40625 C 25.28125 32.960938 23.269531 32.292969 22.339844 32.925781 C 19.976562 34.523438 22.488281 38.53125 23.328125 40.199219 "/>
<path style=" stroke:none;fill-rule:nonzero;fill:rgb(13.725491%,12.156863%,12.54902%);fill-opacity:1;" d="M 25.316406 9.242188 C 22.917969 8.6875 21.726562 10.246094 21 11.859375 C 20.351562 11.710938 20.609375 10.820312 20.777344 10.375 C 21.207031 9.207031 22.9375 7.628906 24.351562 7.851562 C 24.945312 7.925781 25.761719 8.480469 25.316406 9.242188 M 36.980469 11.953125 L 37.09375 11.953125 C 37.632812 13.066406 38.097656 14.253906 38.785156 15.257812 C 38.320312 16.332031 35.324219 17.261719 35.363281 15.367188 C 36.011719 15.089844 37.128906 15.3125 37.707031 14.941406 C 37.371094 14.03125 36.90625 13.25 36.980469 11.953125 M 26.527344 11.988281 C 27.046875 12.9375 27.214844 13.921875 27.941406 14.625 C 28.273438 14.941406 28.90625 15.332031 28.589844 16.222656 C 28.515625 16.425781 27.976562 16.890625 27.660156 16.984375 C 26.527344 17.316406 23.867188 17.058594 24.757812 15.628906 C 25.707031 15.664062 26.972656 16.238281 27.679688 15.554688 C 27.140625 14.699219 26.171875 12.992188 26.527344 11.988281 M 36.554688 21.53125 C 34.839844 22.625 32.925781 23.832031 30.097656 23.550781 C 29.503906 23.03125 29.261719 21.863281 29.855469 21.101562 C 30.152344 21.621094 29.96875 22.585938 30.824219 22.734375 C 32.421875 23.015625 34.285156 21.753906 35.4375 21.324219 C 36.144531 20.117188 35.382812 19.691406 34.730469 18.914062 C 33.410156 17.335938 31.660156 15.367188 31.714844 13.011719 C 32.253906 12.621094 32.292969 13.605469 32.367188 13.773438 C 33.054688 15.367188 34.785156 17.429688 36.03125 18.800781 C 36.347656 19.136719 36.851562 19.46875 36.90625 19.691406 C 37.074219 20.324219 36.476562 21.101562 36.554688 21.53125 M 13.894531 20.378906 C 13.355469 20.0625 13.226562 18.726562 12.59375 18.691406 C 11.683594 18.632812 11.847656 20.433594 11.847656 21.492188 C 11.234375 20.9375 11.125 19.191406 11.570312 18.300781 C 11.050781 18.039062 10.824219 18.578125 10.527344 18.765625 C 10.917969 16.074219 14.492188 17.519531 13.894531 20.378906 M 37.632812 22.660156 C 36.832031 24.183594 35.695312 25.855469 33.351562 25.910156 C 33.296875 25.425781 33.261719 24.667969 33.351562 24.371094 C 35.15625 24.183594 36.273438 23.273438 37.632812 22.660156 M 26.394531 23.644531 C 27.882812 24.425781 30.636719 24.519531 32.683594 24.460938 C 32.796875 24.90625 32.796875 25.464844 32.796875 26.003906 C 30.171875 26.113281 27.085938 25.464844 26.394531 23.644531 M 26.117188 25.09375 C 27.160156 27.691406 30.710938 27.394531 33.707031 27.320312 C 33.578125 27.65625 33.296875 28.0625 32.925781 28.191406 C 31.957031 28.582031 29.316406 28.878906 27.976562 28.175781 C 27.140625 27.730469 26.582031 26.707031 26.117188 26.113281 C 25.914062 25.835938 24.796875 25.113281 26.117188 25.09375 "/>
<path style=" stroke:none;fill-rule:nonzero;fill:rgb(50.588238%,69.01961%,76.862746%);fill-opacity:1;" d="M 36.421875 39.402344 C 35.214844 41.480469 34.042969 43.617188 32.609375 45.433594 C 33.203125 43.671875 33.464844 40.703125 33.558594 38.4375 C 34.824219 37.84375 35.902344 38.566406 36.421875 39.402344 "/>
<path style=" stroke:none;fill-rule:nonzero;fill:rgb(13.725491%,12.156863%,12.54902%);fill-opacity:1;" d="M 42.953125 46.863281 C 41.59375 47.140625 40.644531 48.460938 39.304688 48.367188 C 40.050781 47.347656 41.316406 46.902344 42.953125 46.863281 M 43.546875 48.980469 C 42.429688 49.089844 41.128906 49.277344 40.011719 49.183594 C 40.550781 48.367188 42.597656 48.664062 43.546875 48.980469 M 43.9375 50.816406 C 42.691406 50.835938 41.148438 50.816406 39.957031 50.722656 C 40.664062 49.964844 43.136719 50.445312 43.9375 50.816406 "/>
<path style=" stroke:none;fill-rule:nonzero;fill:rgb(86.274511%,85.09804%,84.705883%);fill-opacity:1;" d="M 34.078125 55.828125 C 34.265625 57.386719 34.878906 58.964844 34.804688 60.671875 C 34.117188 60.894531 33.726562 61.101562 32.796875 61.101562 C 32.738281 59.652344 32.535156 57.425781 32.589844 56.03125 C 33.035156 56.070312 33.707031 55.71875 34.078125 55.828125 "/>
<path style=" stroke:none;fill-rule:nonzero;fill:rgb(94.117647%,83.92157%,71.764708%);fill-opacity:1;" d="M 32.070312 32.8125 C 31.4375 33.222656 30.917969 33.722656 30.300781 34.167969 C 28.964844 34.242188 28.238281 34.078125 27.269531 33.316406 C 27.289062 33.257812 27.382812 33.277344 27.382812 33.203125 C 28.8125 33.835938 30.636719 32.945312 32.070312 32.8125 "/>
<path style=" stroke:none;fill-rule:nonzero;fill:rgb(50.588238%,69.01961%,76.862746%);fill-opacity:1;" d="M 24.589844 42.519531 C 24.980469 40.832031 26.527344 39.941406 27.921875 39.011719 C 29.355469 40.832031 30.226562 43.171875 31.195312 45.433594 C 28.90625 44.75 26.582031 43.652344 24.589844 42.519531 "/>
<path style=" stroke:none;fill-rule:nonzero;fill:rgb(13.725491%,12.156863%,12.54902%);fill-opacity:1;" d="M 32.589844 56.050781 C 32.535156 57.441406 32.71875 59.652344 32.796875 61.117188 C 33.726562 61.117188 34.117188 60.914062 34.804688 60.691406 C 34.878906 58.984375 34.265625 57.40625 34.078125 55.847656 C 33.707031 55.71875 33.035156 56.070312 32.589844 56.050781 Z M 18.230469 48.183594 C 18.84375 53.769531 19.71875 58.445312 21.335938 63.402344 C 24.925781 64.496094 29.242188 64.589844 32.421875 63.605469 C 31.847656 60.820312 32.089844 57.425781 31.753906 54.4375 C 31.492188 52.191406 31.625 49.945312 31.269531 47.664062 C 27.417969 46.863281 21.988281 47.476562 18.230469 48.183594 Z M 32.179688 47.699219 C 32.144531 50.09375 32.292969 52.46875 32.480469 54.863281 C 33.410156 54.734375 34.023438 54.640625 34.878906 54.4375 C 34.597656 52.136719 34.636719 49.519531 34.058594 47.476562 C 33.410156 47.496094 32.832031 47.476562 32.179688 47.699219 Z M 36.851562 47.308594 C 36.402344 47.214844 35.902344 47.308594 35.492188 47.308594 C 35.695312 49.257812 36.160156 51.410156 36.328125 53.472656 C 36.980469 53.488281 37.332031 53.175781 37.875 53.082031 C 37.910156 51.28125 37.726562 48.792969 36.851562 47.308594 Z M 43.9375 53.769531 C 45.3125 53.433594 46.167969 51.765625 45.777344 50.039062 C 45.519531 48.886719 45.074219 46.695312 44.570312 45.953125 C 44.214844 45.417969 43.230469 44.691406 42.429688 45.195312 C 41.148438 46.011719 38.898438 46.25 37.964844 47.234375 C 38.429688 48.792969 38.582031 50.910156 38.765625 52.878906 C 40.367188 52.96875 42.320312 52.433594 43.660156 53.007812 C 42.726562 53.304688 41.539062 53.304688 40.738281 53.75 C 41.40625 54.066406 42.933594 54.011719 43.9375 53.769531 Z M 31.175781 45.433594 C 30.210938 43.171875 29.335938 40.832031 27.902344 39.011719 C 26.507812 39.941406 24.980469 40.832031 24.574219 42.519531 C 26.582031 43.652344 28.90625 44.75 31.175781 45.433594 Z M 33.558594 38.4375 C 33.464844 40.703125 33.203125 43.671875 32.609375 45.433594 C 34.042969 43.597656 35.214844 41.480469 36.421875 39.402344 C 35.902344 38.566406 34.824219 37.84375 33.558594 38.4375 Z M 30.859375 37.492188 C 30.320312 37.433594 29.855469 38.121094 29.148438 37.824219 C 28.980469 38.011719 28.832031 38.195312 28.664062 38.382812 C 30.226562 40.273438 30.953125 42.949219 32.164062 45.15625 C 32.8125 43.023438 32.738281 40.703125 32.886719 38.382812 C 31.996094 38.417969 31.492188 37.546875 30.859375 37.492188 Z M 29.128906 35.207031 C 29.074219 35.859375 29.222656 36.0625 29.355469 36.804688 C 31.472656 37.472656 31.121094 33.890625 29.128906 35.207031 Z M 26.769531 34.429688 C 25.855469 33.925781 24.480469 33.390625 23.289062 33.167969 C 21.820312 32.886719 21.96875 35.171875 22.023438 36.527344 C 22.082031 37.601562 22.636719 38.734375 22.878906 39.457031 C 22.992188 39.792969 23.027344 40.144531 23.308594 40.21875 C 23.808594 40.332031 25.484375 39.679688 25.949219 39.421875 C 26.953125 38.882812 27.734375 38.011719 28.589844 37.417969 C 28.609375 37.136719 28.609375 36.839844 28.628906 36.5625 C 28.109375 36.304688 27.53125 36.136719 26.769531 36.097656 C 27.269531 35.839844 28.03125 35.839844 28.496094 35.542969 C 28.496094 35.429688 28.496094 35.320312 28.515625 35.207031 C 27.660156 35.117188 27.34375 34.746094 26.769531 34.429688 Z M 18.023438 32.851562 C 17.261719 33.628906 20.164062 34.671875 21.074219 34.726562 C 21.074219 34.242188 21.355469 33.78125 21.300781 33.425781 C 20.203125 33.242188 18.769531 33.371094 18.023438 32.851562 Z M 27.402344 33.203125 C 27.402344 33.277344 27.308594 33.257812 27.289062 33.316406 C 28.273438 34.078125 29 34.242188 30.320312 34.167969 C 30.917969 33.742188 31.457031 33.222656 32.089844 32.8125 C 30.636719 32.945312 28.8125 33.835938 27.402344 33.203125 Z M 35.996094 35.800781 C 35.957031 34.949219 35.734375 33.183594 35.195312 32.871094 C 34.078125 32.21875 32.105469 34.1875 31.269531 34.484375 C 31.363281 34.746094 31.511719 34.949219 31.53125 35.28125 C 32.03125 35.152344 32.628906 35.246094 33.054688 35.449219 C 32.554688 35.503906 32.015625 35.503906 31.679688 35.746094 C 31.566406 36.097656 31.714844 36.5625 31.625 37.046875 C 32.796875 37.378906 34.152344 37.546875 35.640625 37.601562 C 35.921875 37.230469 36.03125 36.527344 35.996094 35.800781 Z M 16.742188 33.59375 C 16.5 33.425781 14.882812 31.328125 14.660156 31.421875 C 11.738281 32.574219 9.003906 34.558594 6.566406 36.453125 C 8.890625 41.445312 9.839844 47.550781 10.007812 53.433594 C 12.667969 54.679688 15.011719 56.476562 18.640625 56.664062 C 18.210938 53.710938 17.839844 51.058594 17.597656 48.273438 C 16.6875 47.886719 15.382812 48.292969 14.527344 48.164062 C 14.527344 47.140625 15.832031 47.71875 15.941406 47.03125 C 16.015625 46.511719 15.214844 46.472656 15.476562 45.65625 C 16.144531 45.898438 16.5 46.4375 17.207031 46.640625 C 17.859375 45.230469 17.207031 42.726562 17.300781 41.539062 C 17.320312 41.316406 17.410156 40.3125 17.914062 40.480469 C 18.359375 40.628906 17.894531 43.171875 17.933594 44.285156 C 17.96875 45.324219 17.800781 46.308594 18.230469 46.957031 C 21.726562 46.472656 25.28125 46.175781 29.074219 46.066406 C 28.238281 45.714844 27.25 45.378906 26.171875 44.765625 C 25.578125 44.433594 23.734375 43.746094 23.570312 43.1875 C 23.289062 42.296875 24.277344 41.835938 24.441406 41.074219 C 22.675781 42.039062 22.339844 40.144531 21.914062 38.828125 C 21.539062 37.621094 21.316406 36.710938 21.226562 36.023438 C 19.679688 35.246094 18.042969 34.523438 16.742188 33.59375 Z M 34.449219 31.664062 C 36.886719 30.496094 37.332031 36.0625 36.367188 37.863281 C 36.515625 38.402344 37.019531 38.605469 37.222656 39.085938 C 35.863281 41.519531 34.359375 43.78125 32.960938 46.175781 C 33.984375 45.527344 35.472656 46.066406 36.683594 45.582031 C 37.128906 45.417969 37.445312 44.394531 37.78125 43.578125 C 38.710938 41.351562 39.679688 38.53125 40.105469 36.414062 C 40.199219 35.933594 40.476562 34.875 40.402344 34.449219 C 40.292969 33.667969 39.25 33.09375 38.710938 32.628906 C 37.726562 31.738281 37.109375 30.976562 36.070312 30.140625 C 35.679688 30.753906 34.785156 31.164062 34.449219 31.664062 Z M 11.179688 10.113281 C 10.027344 11.394531 10.269531 13.773438 10.398438 15.480469 C 12.5 14.160156 15.273438 15.589844 15.253906 17.816406 C 16.257812 17.800781 15.625 16.574219 15.441406 15.777344 C 14.84375 13.195312 16.445312 10.414062 15.515625 8.054688 C 13.710938 8.203125 12.238281 8.925781 11.179688 10.117188 Z M 19.476562 2.710938 C 16.851562 3.453125 13.488281 5.363281 12.40625 7.722656 C 13.246094 7.589844 13.820312 7.183594 14.640625 7.128906 C 14.957031 7.109375 15.363281 7.257812 15.71875 7.164062 C 16.425781 6.980469 17.039062 5.382812 17.578125 4.789062 C 18.101562 4.214844 18.730469 3.953125 19.160156 3.433594 C 19.4375 3.304688 19.847656 3.304688 19.867188 2.894531 C 19.753906 2.765625 19.625 2.671875 19.476562 2.710938 Z M 33.148438 3.414062 C 30.414062 1.875 25.800781 0.722656 22.898438 2.171875 C 20.554688 3.339844 17.394531 5.269531 16.3125 7.703125 C 17.316406 10.058594 16.015625 12.210938 15.921875 14.605469 C 15.886719 15.886719 16.519531 16.984375 16.574219 18.375 C 16.222656 18.949219 15.179688 19.003906 14.453125 18.96875 C 14.210938 17.742188 13.785156 16.371094 12.519531 16.222656 C 10.734375 16.015625 9.414062 17.503906 9.339844 19.042969 C 9.246094 20.863281 10.734375 23.867188 12.855469 23.664062 C 13.671875 23.589844 13.878906 22.773438 14.769531 22.773438 C 15.253906 23.738281 14.027344 24.035156 13.894531 24.722656 C 13.859375 24.90625 13.988281 25.59375 14.082031 25.929688 C 14.472656 27.507812 15.328125 29.566406 16.164062 30.773438 C 17.242188 32.3125 19.347656 32.535156 21.617188 32.683594 C 22.023438 31.8125 23.511719 31.886719 24.480469 32.109375 C 23.308594 31.644531 22.230469 30.53125 21.335938 29.546875 C 20.3125 28.414062 19.273438 27.210938 19.214844 25.722656 C 21.167969 28.414062 22.769531 30.773438 26.304688 31.960938 C 28.980469 32.851562 32.105469 31.550781 34.171875 30.105469 C 35.027344 29.511719 35.53125 28.546875 36.144531 27.691406 C 38.414062 24.425781 39.472656 19.785156 39.25 15.273438 C 39.15625 13.417969 39.15625 11.5625 38.523438 10.320312 C 37.875 9.019531 35.660156 7.832031 34.359375 9.019531 C 34.117188 7.738281 35.4375 6.960938 36.980469 7.425781 C 35.882812 5.996094 34.730469 4.304688 33.148438 3.414062 Z M 38.246094 45.378906 C 40.382812 44.320312 44.367188 42.539062 45.6875 45.378906 C 46.1875 46.4375 46.765625 48.199219 47.007812 49.296875 C 47.359375 50.816406 46.617188 54.046875 45.035156 54.546875 C 43.640625 54.992188 42.023438 54.976562 40.347656 54.640625 C 40.144531 54.472656 39.9375 54.195312 39.769531 53.898438 C 38.582031 53.859375 37.445312 53.953125 36.515625 54.457031 C 36.609375 55.347656 36.011719 55.476562 35.4375 55.660156 C 35.027344 57.3125 36.273438 59.464844 35.976562 60.949219 C 35.769531 62.027344 34.449219 62.195312 33.484375 62.378906 C 33.445312 62.972656 33.519531 63.476562 33.59375 63.976562 C 33.371094 64.792969 32.386719 65.257812 31.4375 65.367188 C 28.332031 65.738281 23.625 65.90625 20.648438 64.832031 C 19.8125 62.789062 19.160156 60.320312 18.472656 58 C 15.570312 58.316406 13.207031 56.757812 10.992188 55.71875 C 10.230469 55.363281 9.171875 55.160156 8.875 54.546875 C 8.59375 53.953125 8.707031 52.820312 8.632812 51.765625 C 8.464844 49.035156 8.296875 46.398438 7.589844 43.617188 C 7.273438 42.355469 6.695312 41.257812 6.304688 40.050781 C 5.933594 38.9375 5.300781 37.546875 5.132812 36.433594 C 4.890625 34.78125 6.453125 34.6875 7.441406 33.964844 C 8.984375 32.851562 10.195312 32.238281 11.867188 31.238281 C 12.371094 30.941406 13.859375 30.195312 14.027344 29.84375 C 14.359375 29.15625 13.449219 28.191406 13.207031 27.65625 C 12.816406 26.800781 12.613281 26.078125 12.554688 25.242188 C 11.160156 25.019531 10.082031 24.183594 9.449219 23.253906 C 8.390625 21.695312 7.644531 18.820312 8.574219 16.648438 C 8.648438 16.480469 9.003906 16.128906 9.058594 15.867188 C 9.171875 15.347656 8.855469 14.664062 8.835938 14.105469 C 8.742188 11.265625 9.320312 8.816406 11.234375 7.960938 C 12.015625 4.863281 14.808594 3.84375 17.429688 2.300781 C 18.414062 1.726562 19.496094 1.355469 20.609375 0.945312 C 24.609375 -0.519531 30.765625 -0.242188 34.097656 2.265625 C 35.511719 3.320312 37.761719 5.566406 38.5625 7.203125 C 40.699219 11.488281 40.535156 18.671875 39.046875 23.90625 C 38.839844 24.609375 38.5625 25.632812 38.152344 26.484375 C 37.875 27.078125 37 28.25 37.09375 28.769531 C 37.203125 29.304688 39.101562 30.734375 39.511719 31.125 C 40.234375 31.832031 41.632812 32.757812 41.742188 33.648438 C 41.871094 34.597656 41.332031 35.894531 41.054688 36.804688 C 40.160156 39.847656 39.269531 42.652344 38.246094 45.378906 Z M 38.246094 45.378906 "/>
<path style=" stroke:none;fill-rule:nonzero;fill:rgb(96.862745%,89.411765%,80.392158%);fill-opacity:1;" d="M 24.015625 24.296875 C 24.125 24.148438 24.757812 23.90625 25.652344 24.332031 C 25.652344 24.332031 24.589844 24.5 24.683594 26.261719 L 24.238281 26.167969 C 24.257812 26.1875 23.792969 24.59375 24.015625 24.296875 "/>
<path style=" stroke:none;fill-rule:nonzero;fill:rgb(11.372549%,9.803922%,9.803922%);fill-opacity:1;" d="M 31.714844 39.367188 C 31.714844 39.625 31.492188 39.847656 31.234375 39.847656 C 30.972656 39.847656 30.75 39.625 30.75 39.367188 C 30.75 39.105469 30.972656 38.882812 31.234375 38.882812 C 31.511719 38.882812 31.714844 39.105469 31.714844 39.367188 M 32.199219 41.613281 C 32.199219 41.871094 31.976562 42.09375 31.714844 42.09375 C 31.457031 42.09375 31.234375 41.871094 31.234375 41.613281 C 31.234375 41.351562 31.457031 41.128906 31.714844 41.128906 C 31.996094 41.128906 32.199219 41.332031 32.199219 41.613281 "/>
<path style=" stroke:none;fill-rule:nonzero;fill:rgb(13.725491%,12.156863%,12.54902%);fill-opacity:1;" d="M 6.863281 70.007812 C 6.714844 70.027344 6.585938 70.046875 6.472656 70.0625 C 6.363281 70.082031 6.25 70.101562 6.101562 70.136719 C 5.933594 70.175781 5.839844 70.25 5.804688 70.359375 C 5.765625 70.472656 5.730469 70.582031 5.730469 70.730469 L 5.730469 75.261719 C 5.730469 75.660156 5.640625 76.050781 5.46875 76.410156 C 5.300781 76.765625 5.078125 77.042969 4.78125 77.285156 C 4.484375 77.507812 4.148438 77.691406 3.777344 77.804688 C 3.402344 77.914062 3.011719 77.988281 2.605469 77.988281 C 1.878906 77.988281 1.300781 77.824219 0.855469 77.46875 C 0.410156 77.117188 0.1875 76.652344 0.1875 76.039062 C 0.1875 75.6875 0.277344 75.390625 0.484375 75.148438 C 0.6875 74.910156 0.96875 74.796875 1.320312 74.796875 C 1.65625 74.796875 1.914062 74.890625 2.121094 75.09375 C 2.324219 75.296875 2.417969 75.539062 2.417969 75.816406 C 2.417969 76.058594 2.324219 76.300781 2.15625 76.503906 C 1.992188 76.707031 1.785156 76.914062 1.5625 77.078125 L 1.5625 77.152344 C 1.601562 77.226562 1.675781 77.300781 1.785156 77.359375 C 1.898438 77.414062 2.027344 77.433594 2.140625 77.433594 C 2.605469 77.433594 2.976562 77.265625 3.238281 76.929688 C 3.496094 76.597656 3.628906 76.097656 3.628906 75.429688 L 3.628906 70.789062 C 3.628906 70.65625 3.609375 70.527344 3.570312 70.433594 C 3.535156 70.34375 3.421875 70.269531 3.253906 70.195312 C 3.144531 70.136719 2.996094 70.101562 2.828125 70.0625 C 2.660156 70.027344 2.53125 70.007812 2.417969 69.988281 L 2.417969 69.542969 L 6.808594 69.542969 L 6.808594 70.007812 Z M 13.746094 76.394531 C 13.617188 76.617188 13.449219 76.820312 13.261719 77.023438 C 13.078125 77.226562 12.855469 77.375 12.613281 77.523438 C 12.351562 77.671875 12.089844 77.785156 11.832031 77.859375 C 11.570312 77.933594 11.253906 77.96875 10.917969 77.96875 C 10.34375 77.96875 9.859375 77.898438 9.429688 77.730469 C 9.023438 77.5625 8.667969 77.359375 8.40625 77.078125 C 8.128906 76.800781 7.941406 76.484375 7.792969 76.113281 C 7.660156 75.726562 7.589844 75.320312 7.589844 74.910156 C 7.589844 74.519531 7.664062 74.128906 7.8125 73.777344 C 7.960938 73.421875 8.167969 73.089844 8.425781 72.8125 C 8.6875 72.53125 9.023438 72.308594 9.429688 72.144531 C 9.855469 71.96875 10.3125 71.882812 10.769531 71.882812 C 11.308594 71.882812 11.757812 71.957031 12.109375 72.085938 C 12.464844 72.21875 12.742188 72.402344 12.964844 72.625 C 13.1875 72.847656 13.335938 73.109375 13.449219 73.40625 C 13.542969 73.703125 13.597656 74.015625 13.597656 74.351562 L 13.597656 74.722656 L 9.671875 74.722656 C 9.671875 75.519531 9.820312 76.113281 10.136719 76.523438 C 10.4375 76.929688 10.9375 77.136719 11.589844 77.136719 C 11.960938 77.136719 12.277344 77.042969 12.574219 76.839844 C 12.871094 76.636719 13.125 76.378906 13.320312 76.078125 Z M 11.535156 74.183594 C 11.535156 73.960938 11.515625 73.71875 11.496094 73.480469 C 11.476562 73.238281 11.441406 73.035156 11.367188 72.886719 C 11.292969 72.699219 11.21875 72.570312 11.085938 72.476562 C 10.976562 72.382812 10.828125 72.347656 10.660156 72.347656 C 10.363281 72.347656 10.121094 72.496094 9.953125 72.792969 C 9.765625 73.089844 9.671875 73.570312 9.65625 74.222656 Z M 21.949219 77.765625 L 18.453125 77.765625 L 18.453125 77.339844 C 18.527344 77.339844 18.621094 77.320312 18.714844 77.300781 C 18.824219 77.285156 18.898438 77.265625 18.957031 77.246094 C 19.03125 77.210938 19.085938 77.136719 19.121094 77.0625 C 19.160156 76.988281 19.179688 76.855469 19.179688 76.707031 L 19.179688 74 C 19.179688 73.609375 19.105469 73.3125 18.957031 73.109375 C 18.804688 72.902344 18.601562 72.8125 18.304688 72.8125 C 18.15625 72.8125 18.007812 72.828125 17.875 72.886719 C 17.746094 72.921875 17.617188 72.996094 17.484375 73.089844 C 17.375 73.164062 17.28125 73.238281 17.207031 73.332031 C 17.132812 73.40625 17.078125 73.480469 17.039062 73.554688 L 17.039062 76.652344 C 17.039062 76.78125 17.058594 76.894531 17.09375 76.988281 C 17.132812 77.082031 17.207031 77.15625 17.28125 77.191406 C 17.335938 77.226562 17.410156 77.265625 17.503906 77.285156 L 17.785156 77.339844 L 17.785156 77.765625 L 14.25 77.765625 L 14.25 77.339844 C 14.34375 77.339844 14.433594 77.320312 14.546875 77.300781 C 14.640625 77.285156 14.734375 77.265625 14.808594 77.246094 C 14.9375 77.210938 15.011719 77.136719 15.066406 77.042969 C 15.105469 76.949219 15.140625 76.839844 15.140625 76.691406 L 15.140625 73.3125 C 15.140625 73.199219 15.105469 73.070312 15.050781 72.960938 C 14.992188 72.847656 14.898438 72.753906 14.808594 72.679688 C 14.734375 72.644531 14.660156 72.589844 14.546875 72.570312 C 14.433594 72.53125 14.3125 72.511719 14.191406 72.515625 L 14.191406 72.085938 L 16.964844 71.9375 L 17.058594 72.03125 L 17.058594 72.867188 L 17.078125 72.867188 C 17.210938 72.753906 17.34375 72.636719 17.46875 72.515625 C 17.605469 72.394531 17.746094 72.285156 17.894531 72.179688 C 18.042969 72.085938 18.230469 72.011719 18.453125 71.9375 C 18.675781 71.863281 18.9375 71.847656 19.195312 71.847656 C 19.828125 71.847656 20.292969 72.03125 20.609375 72.382812 C 20.925781 72.738281 21.074219 73.21875 21.074219 73.8125 L 21.074219 76.652344 C 21.074219 76.800781 21.09375 76.914062 21.132812 76.988281 C 21.167969 77.082031 21.261719 77.136719 21.375 77.191406 C 21.429688 77.210938 21.503906 77.246094 21.597656 77.265625 C 21.691406 77.285156 21.78125 77.300781 21.914062 77.320312 L 21.914062 77.765625 Z M 29.949219 77.765625 L 27.214844 77.765625 C 26.925781 77.253906 26.617188 76.75 26.285156 76.261719 C 26.003906 75.855469 25.746094 75.464844 25.503906 75.132812 L 25.167969 75.429688 L 25.167969 76.691406 C 25.167969 76.820312 25.1875 76.949219 25.222656 77.023438 C 25.261719 77.117188 25.335938 77.171875 25.464844 77.226562 C 25.539062 77.265625 25.613281 77.285156 25.707031 77.300781 C 25.800781 77.320312 25.894531 77.339844 25.988281 77.339844 L 25.988281 77.765625 L 22.378906 77.765625 L 22.378906 77.339844 C 22.472656 77.339844 22.5625 77.320312 22.675781 77.300781 C 22.769531 77.285156 22.863281 77.265625 22.9375 77.246094 C 23.066406 77.210938 23.140625 77.136719 23.195312 77.042969 C 23.234375 76.949219 23.269531 76.839844 23.269531 76.691406 L 23.269531 70.230469 C 23.269531 70.101562 23.234375 69.972656 23.179688 69.839844 C 23.121094 69.710938 23.046875 69.601562 22.9375 69.527344 C 22.863281 69.488281 22.75 69.433594 22.601562 69.414062 C 22.453125 69.378906 22.324219 69.359375 22.191406 69.359375 L 22.191406 68.933594 L 25.074219 68.785156 L 25.167969 68.875 L 25.167969 74.851562 C 25.449219 74.59375 25.78125 74.296875 26.136719 73.960938 C 26.488281 73.628906 26.785156 73.347656 26.992188 73.125 C 27.121094 72.996094 27.195312 72.902344 27.195312 72.828125 C 27.214844 72.753906 27.214844 72.71875 27.214844 72.699219 C 27.214844 72.625 27.160156 72.570312 27.027344 72.53125 C 26.898438 72.496094 26.730469 72.441406 26.46875 72.402344 L 26.46875 71.996094 L 29.410156 71.996094 L 29.410156 72.402344 C 29.019531 72.515625 28.722656 72.605469 28.515625 72.699219 C 28.3125 72.792969 28.089844 72.921875 27.847656 73.070312 C 27.6875 73.179688 27.535156 73.289062 27.382812 73.40625 C 27.234375 73.515625 27.066406 73.664062 26.859375 73.832031 C 27.234375 74.386719 27.585938 74.890625 27.902344 75.355469 C 28.21875 75.816406 28.554688 76.320312 28.90625 76.839844 C 29.019531 77.023438 29.167969 77.136719 29.355469 77.210938 C 29.539062 77.265625 29.707031 77.300781 29.894531 77.320312 L 29.894531 77.765625 Z M 33.667969 77.765625 L 30.003906 77.765625 L 30.003906 77.339844 C 30.097656 77.339844 30.210938 77.320312 30.300781 77.300781 C 30.394531 77.285156 30.488281 77.265625 30.542969 77.246094 C 30.675781 77.210938 30.75 77.136719 30.804688 77.042969 C 30.859375 76.949219 30.878906 76.839844 30.878906 76.691406 L 30.878906 73.3125 C 30.878906 73.183594 30.84375 73.050781 30.785156 72.960938 C 30.738281 72.859375 30.660156 72.773438 30.5625 72.71875 C 30.488281 72.679688 30.394531 72.625 30.246094 72.589844 C 30.097656 72.550781 29.96875 72.515625 29.855469 72.515625 L 29.855469 72.085938 L 32.703125 71.9375 L 32.796875 72.03125 L 32.796875 76.632812 C 32.796875 76.765625 32.832031 76.875 32.886719 76.988281 C 32.945312 77.082031 33.035156 77.15625 33.128906 77.191406 C 33.203125 77.226562 33.296875 77.265625 33.390625 77.285156 C 33.484375 77.304688 33.578125 77.320312 33.6875 77.339844 L 33.6875 77.765625 Z M 32.832031 69.878906 C 32.832031 70.175781 32.71875 70.417969 32.496094 70.621094 C 32.273438 70.824219 31.996094 70.9375 31.699219 70.9375 C 31.382812 70.9375 31.121094 70.824219 30.878906 70.621094 C 30.65625 70.417969 30.542969 70.15625 30.542969 69.878906 C 30.542969 69.582031 30.65625 69.339844 30.878906 69.117188 C 31.101562 68.914062 31.382812 68.800781 31.699219 68.800781 C 32.015625 68.800781 32.273438 68.914062 32.496094 69.117188 C 32.71875 69.320312 32.832031 69.582031 32.832031 69.878906 Z M 41.871094 77.765625 L 38.375 77.765625 L 38.375 77.339844 C 38.449219 77.339844 38.542969 77.320312 38.636719 77.300781 C 38.746094 77.285156 38.820312 77.265625 38.878906 77.246094 C 38.953125 77.210938 39.007812 77.136719 39.046875 77.0625 C 39.082031 76.988281 39.101562 76.855469 39.101562 76.707031 L 39.101562 74 C 39.101562 73.609375 39.027344 73.3125 38.878906 73.109375 C 38.730469 72.902344 38.523438 72.8125 38.226562 72.8125 C 38.078125 72.8125 37.929688 72.828125 37.800781 72.886719 C 37.667969 72.941406 37.539062 72.996094 37.410156 73.089844 C 37.296875 73.164062 37.203125 73.238281 37.128906 73.332031 C 37.054688 73.40625 37 73.480469 36.960938 73.554688 L 36.960938 76.652344 C 36.960938 76.78125 36.980469 76.894531 37.019531 76.988281 C 37.054688 77.082031 37.128906 77.15625 37.203125 77.191406 C 37.257812 77.226562 37.332031 77.265625 37.425781 77.285156 L 37.707031 77.339844 L 37.707031 77.765625 L 34.171875 77.765625 L 34.171875 77.339844 C 34.265625 77.339844 34.359375 77.320312 34.46875 77.300781 C 34.5625 77.285156 34.65625 77.265625 34.730469 77.246094 C 34.859375 77.210938 34.933594 77.136719 34.988281 77.042969 C 35.027344 76.949219 35.066406 76.839844 35.066406 76.691406 L 35.066406 73.3125 C 35.066406 73.199219 35.027344 73.070312 34.972656 72.960938 C 34.914062 72.847656 34.824219 72.753906 34.730469 72.679688 C 34.65625 72.644531 34.582031 72.589844 34.46875 72.570312 C 34.355469 72.53125 34.234375 72.511719 34.117188 72.515625 L 34.117188 72.085938 L 36.886719 71.9375 L 36.980469 72.03125 L 36.980469 72.867188 L 37 72.867188 C 37.136719 72.753906 37.265625 72.636719 37.390625 72.515625 C 37.527344 72.394531 37.667969 72.285156 37.816406 72.179688 C 37.964844 72.085938 38.152344 72.011719 38.375 71.9375 C 38.597656 71.863281 38.859375 71.847656 39.121094 71.847656 C 39.753906 71.847656 40.21875 72.03125 40.535156 72.382812 C 40.851562 72.738281 41 73.21875 41 73.8125 L 41 76.652344 C 41 76.800781 41.015625 76.914062 41.054688 76.988281 C 41.089844 77.082031 41.183594 77.136719 41.296875 77.191406 C 41.351562 77.210938 41.425781 77.246094 41.519531 77.265625 C 41.613281 77.285156 41.707031 77.300781 41.835938 77.320312 L 41.835938 77.765625 Z M 45.089844 77.96875 C 44.71875 77.96875 44.347656 77.914062 43.992188 77.804688 C 43.640625 77.691406 43.359375 77.582031 43.15625 77.449219 L 42.988281 77.839844 L 42.542969 77.839844 L 42.46875 75.6875 L 42.894531 75.6875 C 42.953125 75.855469 43.042969 76.058594 43.195312 76.28125 C 43.324219 76.503906 43.492188 76.691406 43.660156 76.875 C 43.851562 77.050781 44.0625 77.199219 44.292969 77.320312 C 44.53125 77.433594 44.773438 77.507812 45.035156 77.507812 C 45.390625 77.507812 45.648438 77.433594 45.816406 77.300781 C 45.984375 77.171875 46.078125 76.949219 46.078125 76.671875 C 46.078125 76.523438 46.039062 76.394531 45.964844 76.28125 C 45.890625 76.1875 45.777344 76.097656 45.648438 76.023438 C 45.5 75.949219 45.332031 75.875 45.148438 75.816406 C 44.960938 75.761719 44.738281 75.707031 44.476562 75.613281 C 44.214844 75.539062 43.992188 75.464844 43.808594 75.371094 C 43.621094 75.296875 43.417969 75.167969 43.230469 75 C 43.0625 74.851562 42.914062 74.667969 42.820312 74.460938 C 42.710938 74.257812 42.671875 74 42.671875 73.703125 C 42.671875 73.164062 42.894531 72.71875 43.359375 72.382812 C 43.824219 72.050781 44.421875 71.882812 45.164062 71.882812 C 45.519531 71.882812 45.835938 71.921875 46.132812 71.996094 C 46.429688 72.070312 46.671875 72.144531 46.875 72.234375 L 47.007812 71.902344 L 47.453125 71.902344 L 47.546875 73.867188 L 47.136719 73.867188 C 47.007812 73.460938 46.765625 73.125 46.449219 72.828125 C 46.113281 72.53125 45.761719 72.382812 45.390625 72.382812 C 45.089844 72.382812 44.847656 72.441406 44.683594 72.570312 C 44.515625 72.699219 44.421875 72.867188 44.421875 73.089844 C 44.421875 73.386719 44.550781 73.589844 44.792969 73.71875 C 45.035156 73.851562 45.390625 73.980469 45.835938 74.089844 C 46.523438 74.277344 47.027344 74.519531 47.359375 74.816406 C 47.675781 75.132812 47.84375 75.519531 47.84375 75.984375 C 47.84375 76.617188 47.601562 77.117188 47.101562 77.453125 C 46.542969 77.785156 45.890625 77.96875 45.089844 77.96875 Z M 45.089844 77.96875 "/>
</g>
</svg>
