<?xml version="1.0" encoding="UTF-8"?>
<svg xmlns="http://www.w3.org/2000/svg" xmlns:xlink="http://www.w3.org/1999/xlink" width="48px" height="48px" viewBox="0 0 48 48" version="1.1">
<g id="surface1">
<path style=" stroke:none;fill-rule:nonzero;fill:rgb(100%,100%,100%);fill-opacity:1;" d="M 7.199219 0 L 40.800781 0 C 44.777344 0 48 3.222656 48 7.199219 L 48 40.800781 C 48 44.777344 44.777344 48 40.800781 48 L 7.199219 48 C 3.222656 48 0 44.777344 0 40.800781 L 0 7.199219 C 0 3.222656 3.222656 0 7.199219 0 Z M 7.199219 0 "/>
<path style=" stroke:none;fill-rule:nonzero;fill:rgb(20%,20%,20%);fill-opacity:1;" d="M 18 19.3125 C 17.4375 20.625 13.5 24.75 13.875 28.875 C 15.375 46.125 20.625 34.5 28.5 38.8125 C 28.5 38.8125 42.5625 30.9375 31.3125 18.1875 C 28.125 13.6875 30.9375 10.125 28.875 7.125 C 26.8125 4.125 23.25 3.9375 20.625 6.75 C 18 9.5625 21.75 13.6875 18 19.3125 "/>
<path style=" stroke:none;fill-rule:nonzero;fill:rgb(93.333334%,93.333334%,93.333334%);fill-opacity:1;" d="M 31.875 27.9375 C 31.875 27.9375 33.5625 24.5625 30.375 22.125 C 33.375 25.3125 31.5 28.125 31.5 28.125 L 30.9375 28.125 C 30.75 21.5625 29.0625 25.125 26.625 13.5 C 29.4375 10.3125 24 7.5 24 12.75 L 22.3125 12.75 C 22.5 8.25 18.5625 10.5 20.8125 13.6875 C 20.625 20.625 16.5 23.4375 16.5 28.3125 C 15.1875 24.9375 17.625 22.3125 17.625 22.3125 C 17.625 22.3125 14.25 25.125 16.3125 29.25 C 18.375 33.375 22.125 32.4375 19.5 34.3125 C 23.625 37.125 30 35.25 29.8125 29.25 C 30 27.75 33.9375 28.3125 34.3125 28.6875 C 34.6875 29.0625 33.75 27.9375 31.875 27.9375 M 21.375 13.3125 C 20.0625 12.9375 20.4375 11.25 21 11.25 C 21.5625 11.25 22.5 12.5625 21.375 13.3125 M 24.9375 13.5 C 24 12.1875 24.75 10.875 25.6875 11.0625 C 26.625 11.25 26.625 13.5 24.9375 13.5 "/>
<path style="fill-rule:nonzero;fill:rgb(100%,80.000001%,13.333334%);fill-opacity:1;stroke-width:1;stroke-linecap:butt;stroke-linejoin:miter;stroke:rgb(20%,20%,20%);stroke-opacity:1;stroke-miterlimit:4;" d="M -41 31 L -20 61 C -9 68 -15 96 -45 82 C -62 77 -76 78 -78 69 C -80 60 -74 59 -75 55 C -79 33 -61 44 -56 33 C -51 22 -51 17 -41 31 M 71 45 C 67 39 71 28 57 29 C 51 41 34 53 33 29 C 23 29 30 53 26 64 C 17 91 43 93 54 80 L 80 62 C 82 59 85 56 71 45 M -21 -47 C -24 -53 -10 -61 -5 -61 C 0 -61 7 -57 14 -55 C 21 -53 18 -46 16 -45 C 14 -44 3 -35 -5 -35 C -13 -35 -15 -43 -21 -47 " transform="matrix(0.1875,0,0,0.1875,24,24)"/>
<path style="fill-rule:nonzero;fill:rgb(100%,80.000001%,13.333334%);fill-opacity:1;stroke-width:1;stroke-linecap:butt;stroke-linejoin:miter;stroke:rgb(20%,20%,20%);stroke-opacity:1;stroke-miterlimit:4;" d="M -21 -48 C -13 -42 -4 -37 14 -51 " transform="matrix(0.1875,0,0,0.1875,24,24)"/>
<path style=" stroke:none;fill-rule:nonzero;fill:rgb(20%,20%,20%);fill-opacity:1;" d="M 22.125 13.875 C 21.75 13.875 22.3125 13.5 22.5 13.6875 M 23.8125 13.875 C 24 13.6875 23.625 13.5 23.25 13.6875 "/>
</g>
</svg>
