<?xml version="1.0" encoding="UTF-8"?>
<svg xmlns="http://www.w3.org/2000/svg" xmlns:xlink="http://www.w3.org/1999/xlink" width="48px" height="48px" viewBox="0 0 48 48" version="1.1">
<g id="surface1">
<path style=" stroke:none;fill-rule:nonzero;fill:rgb(0%,60.000002%,0%);fill-opacity:1;" d="M 9.015625 28.984375 C 8.746094 28.984375 8.480469 28.878906 8.28125 28.679688 L 2.113281 22.511719 L 2.113281 27.941406 C 2.113281 28.515625 1.648438 28.984375 1.070312 28.984375 C 0.496094 28.984375 0.03125 28.515625 0.03125 27.941406 L 0.03125 19.996094 C 0.03125 19.574219 0.285156 19.195312 0.671875 19.03125 C 1.0625 18.871094 1.511719 18.960938 1.808594 19.257812 L 7.972656 25.425781 L 7.972656 19.996094 C 7.972656 19.421875 8.441406 18.953125 9.015625 18.953125 C 9.59375 18.953125 10.058594 19.421875 10.058594 19.996094 L 10.058594 27.941406 C 10.058594 28.515625 9.589844 28.984375 9.015625 28.984375 M 13.839844 18.964844 L 13.554688 19.5 L 11.339844 23.523438 L 11.054688 24.03125 L 11.339844 24.539062 L 13.554688 28.433594 L 13.855469 28.964844 L 19.648438 28.964844 L 19.9375 28.378906 L 21.589844 25.046875 L 22.332031 23.535156 L 20.652344 23.535156 L 16.421875 23.546875 C 15.871094 23.539062 15.363281 24.039062 15.363281 24.589844 C 15.363281 25.140625 15.871094 25.640625 16.421875 25.632812 L 18.972656 25.617188 L 18.347656 26.882812 L 15.066406 26.882812 L 13.4375 24.015625 L 15.078125 21.046875 L 18.570312 21.046875 L 19.382812 22.71875 L 21.480469 22.71875 L 20.160156 19.550781 L 19.871094 18.964844 L 13.839844 18.964844 M 24.398438 18.949219 C 23.851562 18.957031 23.359375 19.460938 23.367188 20.003906 L 23.367188 22.722656 L 25.453125 22.722656 L 25.453125 20.003906 C 25.457031 19.453125 24.949219 18.945312 24.398438 18.949219 M 27.738281 29.003906 C 27.160156 29.003906 26.695312 28.535156 26.695312 27.960938 L 26.695312 20.015625 C 26.695312 19.441406 27.160156 18.972656 27.738281 18.972656 C 28.3125 18.972656 28.777344 19.441406 28.777344 20.015625 L 28.777344 25.445312 L 34.945312 19.277344 C 35.242188 18.980469 35.691406 18.890625 36.082031 19.054688 C 36.46875 19.214844 36.722656 19.59375 36.722656 20.015625 L 36.722656 27.960938 C 36.722656 28.535156 36.257812 29.003906 35.679688 29.003906 C 35.105469 29.003906 34.640625 28.535156 34.640625 27.960938 L 34.640625 22.53125 L 28.472656 28.699219 C 28.277344 28.894531 28.011719 29.003906 27.738281 29.003906 M 44.441406 23.980469 L 47.683594 20.75 C 48.089844 20.34375 48.089844 19.683594 47.683594 19.277344 C 47.28125 18.871094 46.621094 18.867188 46.210938 19.273438 L 42.964844 22.507812 L 39.71875 19.273438 C 39.3125 18.867188 38.652344 18.871094 38.246094 19.277344 C 37.839844 19.683594 37.839844 20.34375 38.25 20.75 L 41.488281 23.980469 L 38.257812 27.199219 C 37.851562 27.605469 37.847656 28.265625 38.253906 28.675781 C 38.449219 28.871094 38.714844 28.980469 38.992188 28.980469 C 39.257812 28.980469 39.527344 28.878906 39.730469 28.675781 L 42.964844 25.449219 L 46.203125 28.675781 C 46.398438 28.871094 46.664062 28.980469 46.9375 28.980469 C 47.207031 28.980469 47.472656 28.878906 47.675781 28.675781 C 48.082031 28.265625 48.082031 27.605469 47.671875 27.199219 L 44.441406 23.980469 M 24.398438 28.972656 C 23.851562 28.964844 23.359375 28.464844 23.367188 27.917969 L 23.367188 23.558594 L 25.453125 23.558594 L 25.453125 27.917969 C 25.457031 28.472656 24.949219 28.980469 24.398438 28.972656 "/>
</g>
</svg>
